<svg xmlns="http://www.w3.org/2000/svg" viewBox="0 0 1210.98 427"><defs><style>.cls-1{fill:#77bd44;fill-rule:evenodd;}</style></defs><g id="Layer_2" data-name="Layer 2"><g id="Layer_1-2" data-name="Layer 1"><path id="Shape" class="cls-1" d="M.19,77.19q0,7.44,3.24,6.51c2-.57,2.66.31,1.64,2.33a4.66,4.66,0,0,0,.48,5.27c1.16,1.11,1.73,4.82,1.27,8.22s0,6.33,1.07,6.47c1.58.21,5.55,11.9,5.12,15.06-.1.71-1.55,1-3.47.77a3.08,3.08,0,0,1-2.91-3.25,1.79,1.79,0,0,1,0-.23c.23-1.71-.29-2.43-1.19-1.65s.21,5.36,2.5,10.37,3.46,12,2.64,15.73c-1.2,5.53-.54,6.82,3.69,7.18,3.22.28,4.95,1.91,4.62,4.35-.3,2.19-1.74,3.4-3.31,2.77a2.29,2.29,0,0,0-3,1.19,2.51,2.51,0,0,0-.17.61c-.23,1.7,1.08,2.5,3.11,1.91a3.79,3.79,0,0,1,4.73,2q1.21,3-1.4.68c-2-1.78-2.4-.82-1.74,4,.49,3.53,1.67,6.8,2.68,7.42s1.36,4.4.8,8.54-.26,7.52.7,7.65,4,5.87,6.85,12.7,6.75,13.3,8.7,14.3,4.83,5,6.32,8.66,3.73,6.32,4.87,5.74,2.31,1.06,2.55,3.57c.42,4.27.52,4.29,1.29.3,1.08-5.62,3.11-5.48,9,.64,4,4.14,5.15,4.41,7.16,1.66s2.34-2.78,1.9.38c-.26,1.95.24,3.06,1.09,2.38s3.23,1,5.06,3.53C78,247.61,83.76,255.67,89,263.16c7.1,10.06,10.72,13.25,14.46,12.73,2.65-.37,4.82.44,4.65,1.74-.5,3.65,12.36,7.19,14.11,3.89.84-1.58,2-1.1,3,1.27.91,2.11,2.8,3.25,4.21,2.55a2.6,2.6,0,0,1,3.48,1.19,1.78,1.78,0,0,1,.12.29,5.29,5.29,0,0,0,3.5,3.07c1.28.18,1.9-.57,1.3-1.56s.29-3.43,2.14-5.41c2.48-2.64,2.55-3.15.29-2.07-1.67.8-4.65-1-6.63-4-4.36-6.58-2.09-10.17,2.49-3.95,1.84,2.49,4.18,4.43,5.27,4.37,5-.29,7.2,1.5,7.68,6.37.4,4.13-.56,5.2-4.43,4.91-9.09-.69,26.91,11.4,43.42,14.57,3.81.74,8.42,3.12,10.15,5.25a10.27,10.27,0,0,0,8.48,3.1c6-.89,16.4,4,28.17,13.3,5.3,4.19,8.46,5.36,9.72,3.61,1-1.43,4.8-1.69,8.34-.59,14,4.33,32,7.24,32.32,5.2.16-1.2,5.74-.73,12.45,1.06,7.13,1.91,12.3,2.25,12.49.82.33-2.38,3.65-2.86,13.52-1.93,3.64.34,4.92-.67,4.38-3.46-.5-2.55.2-3.38,1.95-2.34,1.4.83,2.34,2.75,1.94,4-.77,2.36,8.1,2.85,15.1.85,4.24-1.21,6.94-1.48,12.34-1.24,2.16.1,3.68-.93,3.22-2.16s.62-2.15,2.33-1.92,2.51,1.38,1.73,2.46.55,2.31,3.11,2.65,4.74-.51,4.94-1.93,2.6-1.57,5.68-.23c3.48,1.53,5.47,1.28,5.74-.71.23-1.7,1.27-2.27,2.35-1.29s2.63.35,3.43-1.28c.92-1.84,1.34-1.3,1.09,1.39-.58,6.22,6.4,6.56,8.71.43,1.51-4,3-4.65,6.42-2.84,7.09,3.73,12.55,3.54,16.05-.57,3-3.56,3.37-3.51,5.75.78,2.27,4.07,3,4.16,7.17.84a10.47,10.47,0,0,1,10.43-1.62c7,2.55,12.52,1.42,11.12-2.29-.57-1.53.56-3.73,2.43-4.71,4.92-2.58,6.78-1.93,6.23,2.16-.28,2,1.55,4.57,4,5.68,4.71,2.12,10.92,1.22,11.3-1.63.13-.95,5.46-1,12.08-.11s12.52.82,13.38-.17,7.57-1.36,14.89-.85,15,.43,17-.19c5.43-1.68,18.11-2.14,34.28-1.22,21.12,1.19,22,1,29.11-4.82,3.67-3,6.46-4.37,6.28-3-.33,2.44,19.1,5.28,21.53,3.15.82-.72,3.47-.05,6.07,1.57s6.37,2.06,8.66,1,9.29-1.26,15.94-.58,12.91.77,14.2.19,7.48-.66,13.71-.19c18.71,1.42,30.87.25,31.41-3q.46-2.91,2,1c1.28,3.28,3.73,3.7,15,2.52,7.45-.78,24.51-.52,38.27.58s25.93,1.3,27.31.46,5.85-.69,10,.36c4.41,1.1,8.51.62,9.83-1.15,1.84-2.48,2.18-2.45,1.83.12-.23,1.69,1.81,3.47,4.37,3.81,4.26.58,4.52.13,2.28-4s-2.11-4.44,1.51-2.28c6.63,3.95,31.29,9.3,28.27,6.13-2.21-2.33-2-3,1.41-4,5.43-1.57,5.84-1.34,5.25,2.93-.34,2.5,3,4.66,10.48,6.86,6.05,1.78,11.87,4.89,13,7,2.48,4.61,10.77,6.05,23,4,11.59-2,28.46-3.15,49.58-3.49,9.36-.15,17.75-1.44,18.42-2.84.83-1.76,2.14-1.39,4.18,1.19,1.67,2.1,3.33,3.52,3.8,3.23a1.58,1.58,0,0,1,1.43-.19c5.08,2.58,10.42,3.31,11.68,1.59.92-1.24,3.5-1.39,5.75-.34a11.1,11.1,0,0,0,8.38-.11,9.85,9.85,0,0,1,9.12.86c3.61,2.16,5,1.94,5.33-.89.3-2.2,2.66-3.53,5.65-3.2a57.5,57.5,0,0,0,9.09.23c2.2-.18,4.39.77,4.93,2.15s3.73,2.07,7.06,1.58c4-.6,5.45,0,4.22,1.68s0,2.27,3.36,1.69c4.23-.73,4.5-1.19,1.41-2.41-2.06-.81-3.67-2.51-3.51-3.69s-2.2-2.2-5.24-2.2-5.85-1.72-6.22-3.81.18-3,1.15-2.08,2.51.84,3.52-.51c1.64-2.19,13.78.29,21.06,4.3,2.27,1.26,2.24.33-.14-3.71-4.07-6.92-3.71-7.94,3.17-9,3.33-.51,5.52-2.08,4.94-3.54s0-2.47,1.29-2.3,2.64-1.87,3-4.55c.49-3.63,2-4.59,6-3.77s4.68,1.86,2.6,4.07c-1.45,1.54-2.14,3.95-1.44,5s2.95.15,4.84-2.08,4.42-4,5.52-3.84,4-1.69,6.42-4.09c4-3.92,4.1-4.72,1.42-8-2.43-2.95-3.44-3-5.39-.36s-2.54,2.51-3.22-1.05q-.83-4.33-12.75-7.67c-6.49-1.82-13.06-4.91-14.4-6.78a53.55,53.55,0,0,0-6.44-6.94c-2.13-1.88-3.54-4.83-3-6.36.66-2-.46-2.23-3.93-.71-6.11,2.69-13.65-.91-16.78-8-2.21-5-2.7-5.16-5.14-1.68-1.43,2-3.85,3.69-5.15,3.52s-1.63-1.05-.73-1.84.3-3-1.41-4.77c-2.68-2.8-1.63-4,7.18-8.08,8.35-3.89,9.95-4.05,8.37-.85s-.65,4,4.78,4c4.34,0,6.58,1.16,6.3,3.2-.42,3.07,5.16,8.35,8.47,8,1-.1,1.58,1.15,1.35,2.86s.29,2.43,1.19,1.65,4,0,7,1.86c6.23,3.74,19.22,3.28,17.73-.63a2.27,2.27,0,0,0-2.74-1.66,2.34,2.34,0,0,0-.59.23c-4.07,2.06-10.34-2.65-13.29-10-2.85-7.08-2.85-7.08,1.91-3a29,29,0,0,0,10.24,5.35c3,.67,10.71,2.73,17,4.52,8.36,2.39,11.61,2.46,11.91.25.25-1.81,1.94-2.24,4.16-1.05a8.92,8.92,0,0,0,7.51-.11c3.11-1.73,3-2.46-.94-4.21a9.39,9.39,0,0,1-5.1-7.26c-.31-4.18-2.41-5.4-11.37-6.61-6-.81-12.59-3.17-14.51-5.18-3-3.14-1.49-3.42,10-1.87,7.47,1,13.43,2.7,13.29,3.77s.43,1.9,1.49,1.82,6.42,3.09,12,6.94,10.85,6.49,11.6,5.78.64-1.4-.45-1.55-.33-1.78,1.58-3.75c4-4.17,7.67-4.1,6.33.11-.55,1.72.66,3.75,2.72,4.58,3,1.19,4-.33,5-7.63.7-5.11,2.23-9,3.48-8.83s2.49-1.52,2.79-3.71c.33-2.45-1-3.89-3.41-3.68s-4.16,2.41-4.52,6.08c-.31,3.18-1.25,5.1-2.11,4.3-2.31-2.17-16.23,1.83-15.27,4.38a2.76,2.76,0,0,1-1.44,3.53c-1.32.66-1.64-2.58-.73-7.41,1-5.32,2.51-8,4-7.15a3.06,3.06,0,0,0,4.14-.92c1-1.32,3.37-1.55,5.4-.51,3.45,1.75,3.47,1.67.3-1.45-1.83-1.8-6.64-3.09-10.58-2.83-7.9.51-13.15-4-12.26-10.54.4-2.92,1-3.13,1.91-.73,1.87,4.71,11.35,6.89,13.11,3,.79-1.74-.54-3.3-3.1-3.64-4.27-.58-11.06-9.06-6.87-8.58,1.12.13.68-1-1.05-2.65-2.38-2.31-1.62-3.26,3.8-4.79,7.46-2.1,13.87.25,11.11,4.07a2.53,2.53,0,0,1-3.46.92,1.59,1.59,0,0,1-.27-.18c-1-.95-2.1-.53-2.29.93s1.55,2.93,3.9,3.25,4.47,2.83,4.74,5.85,1.49,5.4,2.83,5.58,2-1.46,1.59-3.75c-.46-2.54.53-3.89,2.67-3.61a5,5,0,0,0,4.91-2.56c.81-1.63,1.83.38,2.22,4.4.5,5,1.82,7.11,4.12,6.5,1.8-.49,2.58.14,1.66,1.34-1,1.35-1,2.44.06,2.73s3.44,1.1,5.51,1.86,3.86.34,4-.94-1.08-2.5-3-2.76-3.15-1.57-2.94-3.12,1.29-1.82,2.39-.8,2.17.79,2.37-.67a5.66,5.66,0,0,0-1.67-4.44,3.15,3.15,0,0,1-.42-4.14c.92-1.29.65-2.39-.63-2.57s-2.83,1.11-3.52,2.75c-.93,2.2-2.19,1.72-4.54-1.73a24.68,24.68,0,0,0-7.52-7c-7.7-4-1.49-6.65,9-3.77,9.22,2.54,10,2.36,7.84-1.72-1.28-2.4-4-4.1-5.7-3.62s-2.61,0-1.8-1.11.07-2.92-1.73-4.07c-2-1.28-2.78-.92-2.08,1,.61,1.66-1.19.76-4.07-2s-6.48-4.38-8.1-3.57-2.15.42-1.18-.9-.64-4.07-3.61-6.19c-5.15-3.68-5.33-3.57-4.84,2.82.31,4-.46,6.5-1.94,6.3a1.35,1.35,0,0,1-1.33-1.37,1.37,1.37,0,0,1,.45-1c.92-1.17.28-2.81-1.53-3.92s-2.27-3.65-1.28-5.75c1.18-2.49.55-4-1.8-4.33-1.92-.26-3.46-1.69-3.28-3a2.23,2.23,0,0,0-2-2.45,2,2,0,0,0-.49,0c-1.53.06-5.73-1.76-9.13-4a63,63,0,0,0-13.81-6.28c-13.57-4-18.3-9.2-17-18.69,1.42-10.47,5.1-15.19,11.58-14.88,3.88.19,4.41-.65,2.91-4.6-1.2-3.14-2.82-4.14-4.61-2.86s-3.72-.62-5.62-5.83C1102,98,1102,98,1106.94,99.86c4.54,1.75,4.66,1.55,1.41-2.39-4.28-5.2-4-7.47,1-7,3.22.29,3.4,0,.86-1.55a10.89,10.89,0,0,1-4.1-4.15c-.51-1.26-3.59-3.17-7.12-4.4-8.29-2.9-9.13-4.56-5-10,4.59-6.07,4.59-6.07-2.46-6.89-5.66-.66-6.08-1.57-4.79-10.32.79-5.34.66-9.7-.29-9.83s.66-5.11,3.59-11.16c5.41-11.17,5.1-17.22-.63-12.23a8.55,8.55,0,0,1-5.94,2.17c-3.63-.49-2.78-8.63,1.27-12.22a8.05,8.05,0,0,0,2.11-7c-.72-4-1.54-3.87-7.38.73-6.23,4.91-11.78,9.69-18,15.54-8.09,7.58-32.38,24.14-34.91,23.79-1.61-.21-5.86,1.59-9.22,3.91-7.14,4.94-20.13,4.19-40.1-2.31-6.65-2.17-16.2-3.6-21.29-3.19-7,.56-7.93,1.09-3.78,2.21,3.48.95,1.75,1.57-4.79,1.71-5.67.13-11-.76-12-2s-3.85-1.27-6.4-.12c-3.24,1.47-5.46,1.06-7.41-1.37-2.19-2.73-4.08-2.77-8.78-.19-5.4,3-6.07,2.87-6.82-.92s-1.5-3.55-5.87.82c-2.84,2.83-5.57,4.79-6.26,4.49-4.72-2-6.82,1.41-3.83,6.29,2.82,4.59,3.72,4.86,6,1.8s2.51-2.51,1.88,2.11-2.06,5.55-7.18,4.86-6.52-2.22-7-7.64c-.57-6.52-.78-6.63-5.46-3-2.67,2.1-5.85,2.84-7.07,1.65s-4.13-.78-6.29.76c-3.54,2.52-3.79,2.22-1.87-2.23,1.72-4,1.19-5.2-2.31-5.37-6-.28-8.88,2.69-5.57,5.83,2.13,2,1.53,3.06-2.86,5-7.39,3.24-20.43,3.61-16.94.49,1.49-1.34,4.83-2.43,7.66-2.52,7-.21,8.89-2.41,6.27-7.25-1.3-2.4-1.61-5.21-.71-6.42s-.12-2.37-2-2.62-4.37,1.51-5.34,4.11a6.14,6.14,0,0,1-6.51,4c-2.6-.35-7.15-.91-9.94-1.21-4.28-.48-5,.35-4.37,5,.59,4.3,0,5.12-2.45,3.64A3.48,3.48,0,0,0,813,54.36a2.64,2.64,0,0,0-.2.37,3.31,3.31,0,0,1-5.08,1.42,4.45,4.45,0,0,1-1.63-5.54c.89-1.87.35-3.5-1.16-3.5a92.74,92.74,0,0,1-10.36-1.28c-6.37-1.07-7-1.81-4.17-4.77,4.42-4.61,0-5.21-5.19-.7-3,2.57-4,2.61-4.36.15s-1.66-2.23-5.1.72c-4.92,4.2-8.87,4.53-8.35.69a2.58,2.58,0,0,0-2-3c-1.34-.18-2,2-1.63,5,1,7.07-3,6.53-6.25-.84-1.62-3.69-3.22-4.9-4.4-3.32a1.84,1.84,0,0,0,0,2.6,1.82,1.82,0,0,0,1,.5c1.63.36.8,1.32-1.93,2.23-7.51,2.51-10.49,1.67-8.44-2.39,1.34-2.64.49-3.9-2.92-4.36s-5,.93-5.68,5.06c-.49,3.16-1.21,4.17-1.62,2.26-.53-2.54-1.7-2.33-4.44.77-3.54,4-3.7,4-3.17-.68.51-4.46.12-4.44-4.47.14-5,5-5,5-5.8-.53s-6.87-8.59-7.53-3.75c-.2,1.51,1.13,2.88,3.05,3.14s3.26,1.63,3,3.14c-.6,4.39-6.48,1.85-7.54-3.25-.86-4.15-1.2-4.13-3.57.26-1.49,2.78-2.47,3.44-2.27,1.56.18-1.72-.72-2.79-1.87-2.24s-2.54-.71-3-3c-.57-3.08-1.79-3.6-5-2.17-2.31,1-4.81,1.83-5.45,1.75s-5.35.2-10.4.63c-11.43,1-12.45,1-18.57.73a14.88,14.88,0,0,0-9.14,3.33c-4.58,3.91-8.52,1.9-7.72-3.94.62-4.59-.43-4.84-7.37-1.74-5.48,2.44-14.53,3-25.2,1.56-3.62-.49-9.2.7-12.86,2.73-4.23,2.35-5.63,2.46-4.06.32,1.92-2.62,1.08-3.13-4.21-2.57-8.63.91-9.7,1-48.35,4.06-17.79,1.4-37.63,3.5-44.2,4.66s-14.35,1.8-17.25,1.43c-7.26-.92-23.43,3.29-21.84,5.69.65,1,.08,1.75-1.2,1.57a5,5,0,0,1-3.41-2.81c-.54-1.39-4.3-2-8.51-1.34-10.43,1.59-29.88,4.12-35,4.55a17.68,17.68,0,0,0-7.66,2.78c-1.77,1.31-6.73,2.36-10.85,2.31-15.39-.2-26.14,1.22-28.09,3.71-1.52,1.94-2,1.84-1.8-.37s-1.27-2.62-5.78-1.4c-3.37.92-15.51,2.23-27.13,2.94-39,2.38-41.67,2.56-55.68,3.71C261.66,74,253.94,75,252,75.6s-4.3.82-5.37.39-3,0-4.69,1c-4,2.41-24-.79-23.72-3.79.13-1.37,4-2.32,8.78-2.16s9.55-.08,10.82-.54c4.19-1.51-24.27-2-41.61-.76-11.19.81-17.87,2.68-20.32,5.68-3.47,4.24-3.81,4.22-6.89-.44s-10-4.08-13.47.91c-.71,1-.68.41.07-1.47,1-2.45-.86-3.22-7.2-3-24.45.86-31.25.53-54.4-2.59-13.65-1.84-26-4.29-27.18-5.4s-2.47-.21-2.8,2.22c-.42,3.12-2,3.73-6,2.3-3.1-1.14-6.71-.63-8.53,1.2-2,2.05-5.53,2.37-9.9.9-3.74-1.26-5.6-1.46-4.18-.44a5.31,5.31,0,0,1,2.25,4.27c-.5,3.7-6.58,2.06-11.95-3.24-4.4-4.34-5-4.3-7,.55-1.4,3.28-3.45,4.53-5.45,3.3C8.45,71.49-.2,67.77,0,68.74.13,69.32.21,73,.19,77.19ZM1071.54,316c3.39-.92,3.47-.58.58,2.43-4,4.17-5.32,4.46-4.86,1.08C1067.45,318.15,1069.29,316.65,1071.54,316Zm-14.69-44.48c4.42,1,4.76,1.77,2.07,4.74-1.8,2-3.49,3.93-3.86,4.43s-2-.68-3.65-2.71c-4-4.82-1.3-8,5.44-6.46Zm-24.61-13.11c1.3-.68,2.19.66,1.89,2.85s-1.52,3.25-2.59,2.26-2-2.3-1.89-2.86,1.19-1.52,2.59-2.25Zm-10.4,67.61c1.92.26,3.27,1.53,3.08,2.9-.43,3.16-4.29,4.95-5.8,2.69-2.09-3.17-.69-6.05,2.72-5.59Zm-52-261.55c3.64.37,7.07,1.85,7.59,3.28s-2.68,2.11-6.94,1.54c-9.6-1.3-10.21-5.79-.65-4.82ZM939,59.86c1.79.24,1.72-.69-.19-2.63-1.71-1.74-2.33-2.91-1.46-2.8a19.8,19.8,0,0,0,5.56-1c2.72-.79,3.42-.28,2.08,1.52s-.76,2.38,1.72,1.72c2.83-.75,3.33.45,2.09,5-2,7.17-14.06,8.74-13.1,1.7.29-2.19,1.74-3.73,3.3-3.52Zm-4.75,177c2.8-.63,8.79,7.22,8.29,10.87a2.31,2.31,0,0,1-2.46,2.14H940c-1.24-.17-2-2.25-1.64-4.68.46-3.41,0-3.66-1.91-1.13-1.39,1.8-3.55,2.28-4.82,1.07-2.71-2.57-1.16-7.4,2.65-8.26Zm-50.87-7.77c-.73,5.36-3.18,6.65-5.62,3-1.72-2.6.27-6.75,3.65-7.62,1.47-.38,2.37,1.74,2,4.66Zm7-.29c-.3,2.19-1.51,3.76-2.77,3.59a2.24,2.24,0,0,1-1.93-2.51s0-.07,0-.11a5.42,5.42,0,0,1,2.77-3.59c1.38-.72,2.22.43,1.92,2.62Zm30.67,10.08c.29-1.65,1.35-.81,2.24,1.79,2.2,6.37-5,11.51-13.21,9.42-11.34-2.9-14.18-11-3.6-10.28a82.24,82.24,0,0,1,10.14,1.32c2.11.49,4.14-.55,4.43-2.25ZM905.84,47.45c1.28.18,2.17.83,2.07,1.52s-1.21,1.77-2.62,2.5S903,51.41,903.22,50s1.45-2.65,2.62-2.5ZM873.29,84.7a3.56,3.56,0,0,1,2.51,3.06c.23,1.66,4,1.27,9.26-1,6.53-2.76,11.81-3,20-.89,6.09,1.56,11,3.85,10.83,5a2.3,2.3,0,0,1-2.65,1.87c-1.28-.17-1.88.88-1.33,2.3,1.33,3.46-3.23,5.7-6.12,3-1.66-1.54-1.38-2.66,1-3.94,2.75-1.5,2.76-1.9,0-2.48-1.78-.37-6.1-1.46-9.45-2.39l-6.18-1.7L895.61,93c5.76,7,2.82,9.66-5.45,4.93-4.63-2.65-7-3-8.32-1.09-1.09,1.52-.7,2,.93,1.12s2.68-.52,2.5.83-3.3,1.91-6.93,1.42c-6.43-.87-6.85-1.67-7.14-13.85a1.64,1.64,0,0,1,1.51-1.76,1.91,1.91,0,0,1,.58.06ZM870.41,125c.25-2.7,1-4.1,1.62-3.13s.39,3.27-.45,4.89c-1,1.88-1.44,1.17-1.17-1.76Zm2.06,34.35c3.11-.49,4.5.49,4.17,2.92-.27,1.94-.95,3.59-1.46,3.52a21,21,0,0,0-4.7,1c-2.26.68-3.52-.42-3.2-2.78s2.53-4.21,5.19-4.63Zm-9-68c.4-2.92,1.43-5,2.4-4.88,2.14.28.52,11-2.25,14.81-1.14,1.58-3,2.11-4,1.15-2.51-2.32-1.92-6.66.86-6.29,1.34.18,2.64-1.87,3-4.79Zm-11.11-3c.29-2.09,2.42-3.39,5-3,4.91.67,5.31,2.64,1.56,7.65-2.88,3.84-7.27.75-6.54-4.6Zm-32,218.24A2.6,2.6,0,1,1,823,304a1.84,1.84,0,0,1,0,.33,2.37,2.37,0,0,1-2.48,2.26Zm8.23-172.13c.82-.66,2.88-.44,4.28.46,1.62,1,1,1.54-1.59,1.27-2.35-.25-3.57-1-2.69-1.73ZM806,226.18c1.2,2.88,2.1,2.89,4.81,0,4.18-4.39,8.44-4.4,5.47,0-1.65,2.44-1.38,2.45,1.55.08,2-1.6,6.42-2.48,10-2,6.18.83,6.3,1.14,2.42,6.15-3.25,4.2-6.45,5.06-15.67,4.21-10.52-1-11.52-1.58-10.84-6.55.53-3.89,1.17-4.45,2.21-1.93ZM802.64,67.73c1.66-2.23,2.31-.8,2.23,4.89-.08,5.44-1.09,7.91-3.11,7.63-3.31-.44-2.81-7.56.88-12.52Zm-11.43,8.62c.61.08,1.52,1.32,2.11,2.89s-.13,2.58-1.41,2.41a2.63,2.63,0,0,1-2.11-2.89c.2-1.46.81-2.49,1.41-2.41ZM759.68,225.51c1.38,3.56-1.55,4.49-14.83,4.7-14.8.22-23.94-4.18-14.27-6.88,2.26-.64,2.87,0,1.62,1.69-2.14,2.9,15.39,2.63,22.31-.35,2.54-1.09,4.55-.76,5.17.84ZM741.62,48c2.47,1.07,3.62,2.85,2.7,4.14s-2.73.88-4.4-1.18c-3.6-4.44-3.22-5.11,1.7-3ZM733.15,88c2.78.31,5.72-.15,6.77-1.06s3.77-1.35,6.11-1,3.84-.54,3.31-1.91.87-1.65,3.12-.63c8.23,3.72,6.32,11-2.26,8.66-1.46-.4-3.89.73-5.8,2.71-2.11,2.17-5.14,2.61-8.42,1.21s-5.28-1.12-5.54.74c-.23,1.71-1.28,2.11-2.52,1-3.64-3.34.09-10.25,5.23-9.66Zm-13.3,136c.29-2.19,1.46-3.15,2.57-2.13a5.44,5.44,0,0,1,1.69,4.32,2.31,2.31,0,0,1-2.47,2.14h-.1c-1.22-.16-2-2.13-1.69-4.32Zm-86-1.71c4.58-3.91,6.91-2.89,6.15,2.71s-4.61,8.34-7.7,5.48c-2.63-2.43-2.14-5,1.55-8.19ZM617.2,90.67c.3-2.19,1.57-3.88,2.79-3.71a2.31,2.31,0,0,1,1.93,2.63.3.3,0,0,1,0,.1,5.54,5.54,0,0,1-2.79,3.72c-1.34.69-2.21-.55-1.91-2.74ZM500.62,99.6c.61.08,1.51,1.32,2.11,2.89s-.14,2.58-1.42,2.41a2.62,2.62,0,0,1-2.1-2.89c.2-1.46.8-2.49,1.41-2.41ZM459,230.66c1.34-.69,2.29-.06,2.09,1.4a2.53,2.53,0,0,1-2.6,2.38c-1.28-.18-2.18-.77-2.09-1.4s1.2-1.64,2.6-2.38ZM93.54,258.07c.55.07,1.4,1.3,2,2.87s0,2.6-1.31,2.42a2.49,2.49,0,0,1-2-2.87c.2-1.46.76-2.5,1.31-2.42ZM58.39,240.19c-1.17-.16-2.43,1-2.62,2.49s.79,2.19,2.07,1.52,2.53-1.8,2.62-2.49-.79-1.35-2.07-1.52Zm14.32,10.48c-1.75.39-.88,1.7,2,3,3.69,1.66,4.57,1.47,3.14-.69a5.2,5.2,0,0,0-5.12-2.3ZM803.81,42.86c.3-2.19-.59-3.54-1.89-2.86s-2.51,1.7-2.59,2.25.74,1.79,1.89,2.86,2.29-.06,2.59-2.25Zm4.75-.6a2.6,2.6,0,1,0-1.82-3.19c0,.11,0,.22-.07.33a2.39,2.39,0,0,0,1.81,2.85ZM812.7,51c1.93-1.44,4-1.58,4.93-.33s.58-.42-.67-3.81c-2.63-7.09-5.86-6.49-6.92,1.3-.56,4.14,0,4.78,2.66,2.84Zm48.76-11.89c.2-1.46-.69-2.94-1.86-3.1s-2.31.22-2.4.92.7,2,1.85,3.1,2.21.54,2.41-.92Zm175,302.79c-1.59.45.16,1.26,3.78,1.75s5,.1,2.94-.84a11.67,11.67,0,0,0-6.72-.91Zm40.51-.73c-1.92-.26-3.57.66-3.76,2.09s1.14,2.76,3.06,3,3.57-.66,3.77-2.1-1.15-2.75-3.07-3Zm32.4-202.07c-2.55,5.1-2.55,5.1,2,7.17,3.11,1.43,3.85.55,3.69-4.43-.22-7-2.88-8.27-5.64-2.74Zm-20.77,193.23c-2.56-.35-4.85.53-5,1.92s1,2.74,3,3a5.56,5.56,0,0,0,5-1.92c1-1.29-.4-2.66-3-3Zm33.79-182.8c5.34.72,6.07-.66,1.75-3.29-1.6-1-3.81-.79-4.72.41s.41,2.53,3,2.88Zm12.93-24q1.56-5.75-2.66-8.29c-3.76-2.28-4.37-1.46-5.59,7.54-.76,5.6-1.06,10.59-.66,11.19,1.41,2.12,7.43-4.94,8.91-10.44Zm-22,199.88c1-1.37.34-2.55-1.58-2.81a5.58,5.58,0,0,0-5,1.92c-1,1.37-.35,2.55,1.57,2.81a5.55,5.55,0,0,0,5-1.92ZM1130.2,142.9c-.2,1.42,1,2.62,3,2.88s3.36,0,3.44-.52-1.17-1.78-3-2.88-3.25-.89-3.44.52ZM1098,422.07c-1.92-.25-3.68.69-3.87,2.08a2.35,2.35,0,0,0,1.72,2.84h.07a4.71,4.71,0,0,0,3.87-2.08c.94-1.3.13-2.59-1.79-2.85Zm43.33-285.6c1.92.26,3.47,0,3.55-.51s-1.27-1.82-3.08-2.9-3.36-.85-3.55.51,1.16,2.64,3.08,2.9Zm-12.91,168.27c-5.58-3.73-5.58-3.73-3.41,3.5,3.09,10.34,2.21,15.52-1.64,9.7-3.43-5.17-7-6.35-7.49-2.5-.18,1.33,2.15,4.18,5.13,6.27,4.56,3.2,5.9,3.16,8.18-.26,1.46-2.2,4.75-3.82,7.1-3.51,4.27.58,4.29.47,1-4.44a38.79,38.79,0,0,0-8.91-8.76ZM1147,131.29c2.32-2-.18-5-3.54-4.26-2.24.51-2.34,1.23-.43,3.1,1.35,1.32,3.18,1.85,4,1.16ZM1116.4,421.4c-3.31-1.22-6.82-.75-8.63,1.13-2.43,2.55-2,3.32,2.3,3.87,8.54,1.09,13.1-2.51,6.33-5ZM1158.56,162c1.14-.18,4.33.87,7,2.3q4.86,2.64,8.43-.47c3-2.65,3-3.66-.27-6.76-4.81-4.55-4.12-11.1,1.57-14.73,4.06-2.58,3.67-3-3.78-4.13-8.73-1.32-14.08,2.12-8.58,5.51,1.91,1.18,3,4.78,2.58,8.19-.7,5.14-1.65,5.73-6.16,3.8-6-2.53-6.36-2.26-4.3,3,.82,2.1,2.34,3.52,3.55,3.33ZM1151.1,319.7c-3.88-3.4-7.15-3-4.83.59.65,1,3,2.07,4.88,2.27,3.06.31,3.06-.14-.05-2.86Zm17.41-98.39a2.29,2.29,0,0,0-.09,3.08,5.87,5.87,0,0,0,3.61,2.22c1.5.21,1.53-.9.09-3.08-1.26-1.91-2.85-2.88-3.61-2.22ZM1181,238.23a2.6,2.6,0,1,0,1.83,3.19,1.94,1.94,0,0,0,.07-.33,2.37,2.37,0,0,0-1.78-2.83l-.12,0Zm18.81,20.65q6,3.76,8.59,1.51t-3-4.66c-8.41-3.67-12.69-1.27-5.64,3.15Zm-.77-30.24c-.88.77.33,1.55,2.69,1.73,2.58.2,3.23-.36,1.61-1.39-1.4-.9-3.47-1.06-4.3-.34Zm11.3-8.81c-.58-.84-3.6-1.51-6.43-1.43l-5.34.14,5.3,2.51c5.31,2.51,8.6,1.89,6.47-1.22Z"/></g></g></svg>