<?xml version="1.0" encoding="utf-8"?>
<!-- Generator: Adobe Illustrator 24.2.0, SVG Export Plug-In . SVG Version: 6.00 Build 0)  -->
<svg version="1.1" xmlns="http://www.w3.org/2000/svg" xmlns:xlink="http://www.w3.org/1999/xlink" x="0px" y="0px"
	 viewBox="0 0 595.28 329.81" style="enable-background:new 0 0 595.28 329.81;" xml:space="preserve">
<style type="text/css">
	.st0{fill:#606060;}
	.st1{fill:#5E5E5E;}
	.st2{fill:#646363;}
	.st3{fill:#19496B;}
	.st4{fill:#17496B;}
	.st5{display:none;}
	.st6{display:inline;fill:#4E4E4F;}
	.st7{fill:#1B486A;}
	.st8{display:none;fill:#4E4E4F;}
	.st9{fill:#A3BD3B;}
	.st10{fill:#4E4E4F;}
</style>
<g id="Layer_1">
	<g>
		<path class="st0" d="M150.5,146.9c-4.61-0.31-8.77-1.51-10.96-6.14c-0.34-0.72-1.24-1.92,0.05-2.28c1.03-0.28,2.73-0.99,3.42,0.69
			c1.85,4.5,8.53,5.28,12.44,3.33c2.03-1.01,3.19-2.53,3.13-4.89c-0.06-2.35-1.45-3.68-3.48-4.33c-2.32-0.75-4.73-1.25-7.09-1.86
			c-0.81-0.21-1.64-0.39-2.43-0.68c-3.09-1.12-5.86-2.69-6.01-6.41c-0.15-3.95,1.42-7.17,5.06-9.1c4.41-2.35,11.02-1.37,14.56,2.13
			c0.54,0.53,1.08,1.13,1.4,1.8c0.55,1.16,0.77,2.46-0.63,3.2c-1.4,0.74-2.23-0.08-2.94-1.29c-2.12-3.63-8.38-4.7-11.71-2.11
			c-2.16,1.68-2.84,6.61,1.15,7.78c3.52,1.03,7.11,1.82,10.61,2.91c5.92,1.84,6.65,8.53,4.13,12.41c-1.26,1.94-3.13,3.12-5.25,3.91
			C154.22,146.61,152.37,146.78,150.5,146.9z"/>
		<path class="st1" d="M186.47,126c2.56-3.11,5.43-3.77,8.63-3.43c3.43,0.37,5.66,2.38,6.16,5.77c0.82,5.56,0.45,11.16,0.43,16.74
			c-0.01,2.01-1.46,1.26-2.46,1.39c-1.21,0.16-1.78-0.2-1.77-1.6c0.04-4.74,0.08-9.5-0.17-14.23c-0.18-3.32-1.04-4.14-3.5-4.54
			c-2.88-0.47-5.42,0.71-6.58,3.09c-0.97,1.99-1,4.16-1.03,6.29c-0.05,3.14-0.06,6.28,0.06,9.42c0.07,1.69-0.89,1.56-2.03,1.58
			c-1.11,0.02-1.87,0.03-1.86-1.5c0.06-9.34,0.02-18.69,0.04-28.03c0-1.3,0.31-2.57,1.92-2.61c1.53-0.04,1.7,1.2,1.9,2.39
			C186.7,119.56,186.28,122.4,186.47,126z"/>
		<path class="st0" d="M229.67,134.74c-0.06-6.71,4.92-12.2,11.1-12.22c6.05-0.03,11.2,5.46,11.19,11.93
			c-0.01,6.58-5.01,12.21-10.91,12.29C234.87,146.82,229.73,141.39,229.67,134.74z M247.96,134.4c-0.03-0.34-0.03-1.04-0.14-1.71
			c-0.66-3.83-3.87-6.83-7.08-6.65c-3.65,0.2-6.56,3.05-7.11,6.95c-0.6,4.29,1.66,8.75,5.02,9.88
			C243.31,144.42,247.92,140.4,247.96,134.4z"/>
		<path class="st0" d="M296.4,134.89c-0.34,6.94-5.36,12.09-11.5,11.8c-6.11-0.29-11.05-6.11-10.73-12.64
			c0.33-6.73,5.58-11.85,11.8-11.51C291.95,122.87,296.71,128.51,296.4,134.89z M278.19,134.31c-0.02,4.12,1.96,7.51,4.99,8.53
			c3.78,1.27,7.64-1.04,8.96-5.35c1.43-4.69-1-10.15-4.98-11.2C282.43,125.04,278.22,128.81,278.19,134.31z"/>
		<path class="st0" d="M227.17,134.33c0.02,6.81-4.88,12.36-10.94,12.39c-6.08,0.03-11.21-5.38-11.25-11.86
			c-0.04-6.77,4.88-12.31,10.98-12.34C222.14,122.49,227.15,127.77,227.17,134.33z M223.38,135.04c0-4.67-2.47-8.23-5.89-8.76
			c-3.62-0.56-6.68,1.21-8.04,4.65c-1.53,3.89-0.22,8.98,2.82,11c2.27,1.5,4.69,1.52,6.99,0.3
			C222.19,140.68,223.29,137.96,223.38,135.04z"/>
		<path class="st1" d="M303.14,136.89c0-2.68-0.03-5.36,0.02-8.04c0.02-1.04-0.09-1.68-1.42-1.74c-1.1-0.05-2.59-0.31-2.59-1.74
			c-0.01-1.45,1.28-1.99,2.62-1.96c1.17,0.03,1.4-0.53,1.39-1.55c-0.01-1.14,0.03-2.31,0.26-3.42c0.69-3.3,2.16-4.3,5.51-4.13
			c1.23,0.06,1.85,0.38,1.74,1.73c-0.08,1.05,0.25,2.09-1.53,2.08c-2.56-0.01-2.08,2.08-2.22,3.7c-0.17,1.95,1.23,1.62,2.3,1.53
			c1.5-0.13,1.99,0.4,1.97,1.91c-0.01,1.42-0.3,2.22-1.89,1.94c-1.89-0.33-2.47,0.43-2.41,2.35c0.14,5.05-0.02,10.1,0.09,15.15
			c0.04,1.69-0.75,1.74-2.07,1.79c-1.46,0.06-1.85-0.42-1.8-1.82C303.2,142.1,303.14,139.5,303.14,136.89z"/>
		<path class="st0" d="M179.08,142.34c0.51,4.01,0.48,4.04-3.3,4.21c-6.57,0.28-10.26-3.32-10.83-10.59
			c-0.69-8.7,4.78-14.41,12.77-13.32c1.37,0.19,2.37,2.6,1.54,3.69c-0.42,0.55-0.82,0.1-1.21-0.01c-4.71-1.28-7.46,0.38-8.58,5.17
			c-0.46,1.96-0.61,3.94-0.2,5.91C170.43,143.13,173.64,144.77,179.08,142.34z"/>
		<path class="st2" d="M209.99,241.93c-2.19,0.65-3.41-0.13-4.44-1.77c-1.17-1.88-2.64-3.57-3.86-5.42c-0.82-1.24-1.96-1.46-3.2-1.2
			c-1.52,0.32-0.7,1.63-0.77,2.48c-0.14,1.6-0.07,3.21-0.03,4.82c0.03,0.99-0.37,1.35-1.36,1.33c-0.93-0.01-1.43-0.25-1.42-1.28
			c0.02-6.05,0.02-12.1,0-18.14c0-0.87,0.34-1.27,1.22-1.23c2.37,0.11,4.75-0.23,7.11,0.27c3.1,0.66,4.7,2.13,4.99,4.59
			c0.34,2.95-0.87,4.94-3.83,6.33c-0.21,0.1-0.4,0.22-0.8,0.44C205.7,236.01,207.77,238.87,209.99,241.93z M197.67,227.61
			c0.01,4.18,0.95,4.86,5.03,3.59c2.12-0.66,3.08-2.13,2.84-4.31c-0.24-2.17-1.73-2.89-3.62-3.08
			C197.66,223.38,197.66,223.4,197.67,227.61z"/>
		<path class="st2" d="M350.56,247.28c-1.56,0.1-3.13-0.23-4.52-1.11c-1.97-1.25-2.11-3.4-0.39-4.97c0.06-0.05,0.12-0.09,0.19-0.13
			c1.68-1.14-0.98-2.03-0.17-3.35c0.41-0.66,2.35-1.05,0.73-2.76c-2.6-2.74-0.98-6.73,2.76-7.47c2.79-0.55,5.39,1.09,8.17,0.71
			c0.31-0.04,0.55,0.23,0.58,0.58c0.04,0.44-0.22,0.84-0.59,0.85c-1.66,0.01-1.31,0.95-1.2,2.07c0.28,2.87-1.94,4.83-5.3,5.01
			c-1,0.05-2.74-0.79-2.79,0.96c-0.04,1.67,1.73,1.24,2.85,1.36c1.21,0.13,2.44,0.13,3.65,0.27c1.39,0.16,2.53,0.81,2.93,2.21
			c0.41,1.44-0.11,2.73-1.15,3.76C354.75,246.82,352.8,247.37,350.56,247.28z M350.57,241.01c0,0.02,0,0.04-0.01,0.07
			c-0.61-0.05-1.22-0.18-1.82-0.14c-1.14,0.07-1.75,0.84-2.05,1.85c-0.28,0.96,0.24,1.7,1.04,2.04c2.11,0.91,4.28,0.96,6.35-0.14
			c0.77-0.41,1.27-1.13,1.09-2.07c-0.17-0.88-0.89-1.2-1.67-1.31C352.54,241.15,351.55,241.1,350.57,241.01z M351.02,229.22
			c-2.19-0.06-3.46,0.99-3.53,2.71c-0.07,1.72,1.17,2.99,3,3.05c2.06,0.07,3.43-1.04,3.36-2.88
			C353.78,230.2,352.76,229.17,351.02,229.22z"/>
		<path class="st2" d="M503.77,247.31c-0.77,0.04-2.12-0.23-3.37-0.86c-2.47-1.26-2.78-3.42-0.81-5.33
			c0.28-0.27,1.09-0.42,0.64-0.96c-1.2-1.46-0.84-2.66,0.42-3.78c0.39-0.35,0.32-0.6,0-0.9c-1.91-1.77-2.2-3.85-0.81-5.98
			c1.47-2.25,3.87-2.41,6.19-1.96c1.5,0.29,2.96,0.71,4.51,0.62c0.45-0.03,1.01-0.08,1.12,0.51c0.12,0.64-0.25,1.03-0.89,1.07
			c-0.89,0.05-1.06,0.35-0.95,1.3c0.41,3.39-1.53,5.51-4.97,5.64c-0.46,0.02-0.92-0.02-1.38-0.06c-0.84-0.07-1.63,0.03-1.65,1.08
			c-0.02,1.01,0.78,1.21,1.59,1.26c1,0.06,1.99,0.05,2.99,0.08c3.17,0.09,4.77,1.05,5.02,2.99c0.26,2.04-1.42,4.01-4.07,4.89
			C506.38,247.26,505.4,247.27,503.77,247.31z M504.62,245.44c0.99,0,1.97,0,2.89-0.48c0.93-0.5,1.68-1.15,1.53-2.29
			c-0.15-1.12-1.11-1.34-2.05-1.43c-1.36-0.13-2.73-0.22-4.09-0.3c-1.27-0.07-2.01,0.7-2.33,1.77c-0.35,1.16,0.42,1.8,1.38,2.29
			C502.81,245.45,503.71,245.42,504.62,245.44z M504.77,229.23c-2.23,0-3.36,0.99-3.38,2.8c-0.02,1.87,1.24,3.01,3.28,2.96
			c1.91-0.04,3.18-1.21,3.06-2.95C507.6,230.11,506.54,229.12,504.77,229.23z"/>
		<path class="st2" d="M286.38,234.91c0,1.84-0.03,3.67,0.01,5.51c0.03,1.03-0.02,1.78-1.4,1.76c-1.34-0.02-1.2-0.84-1.2-1.69
			c0-3.06-0.04-6.12,0.03-9.18c0.02-1.15-0.24-1.57-1.51-1.6c-4.62-0.11-4.62-0.17-4.62,4.46c0,2.22-0.02,4.44,0.01,6.65
			c0.01,0.95-0.32,1.36-1.34,1.34c-1.03-0.01-1.32-0.47-1.31-1.4c0.02-3.06-0.02-6.12,0.02-9.18c0.02-1.06,0.04-1.95-1.38-2.05
			c-0.55-0.04-1-0.45-0.9-1.11c0.09-0.66,0.68-0.56,1.08-0.52c1.14,0.12,1.11-0.57,1.24-1.4c0.6-3.84,2.88-5.62,6.88-5.47
			c0.7,0.03,1.72-0.28,1.78,0.88c0.06,1.21-0.96,0.92-1.67,0.97c-2.94,0.24-4.08,1.15-4.42,3.37c-0.18,1.17,0.07,1.7,1.37,1.64
			c1.84-0.08,3.68,0.06,5.52-0.04c1.37-0.08,1.95,0.3,1.85,1.77c-0.12,1.75-0.03,3.52-0.03,5.27
			C286.38,234.91,286.38,234.91,286.38,234.91z"/>
		<path class="st2" d="M244.93,240.24c-1.2,0.68-2.12,1.42-3.17,1.76c-1.57,0.51-3.19,0.41-4.61-0.59
			c-2.73-1.91-3.45-7.49-1.54-10.98c1.51-2.76,5.24-4.17,8.53-2.12c0.1,0.07,0.29,0.01,0.68,0.01c0-1.97,0.05-3.93-0.02-5.89
			c-0.04-1.11,0.36-1.46,1.45-1.46c1.15,0,1.18,0.65,1.18,1.48c-0.01,5.89,0.01,11.78-0.05,17.67c-0.01,0.68,0.6,1.8-0.81,1.98
			C245.2,242.27,245.13,241.25,244.93,240.24z M244.81,234.53c0-0.38,0-0.76,0-1.14c-0.01-2.91-0.61-3.78-2.83-4.05
			c-2.28-0.27-3.94,0.85-4.51,3.25c-0.42,1.79-0.47,3.63,0.21,5.39c0.77,1.97,2.26,2.58,4.23,2.11
			C244.32,239.52,244.81,238.53,244.81,234.53z"/>
		<path class="st1" d="M259.07,130.7c0,4.67-0.07,9.33,0.04,14c0.04,1.67-0.71,1.81-2.05,1.83c-1.33,0.02-1.88-0.26-1.87-1.75
			c0.07-9.18,0.03-18.36,0.05-27.54c0-1.34,0.14-2.8,1.91-2.86c1.85-0.05,1.9,1.46,1.91,2.78
			C259.08,121.67,259.06,126.18,259.07,130.7C259.06,130.7,259.07,130.7,259.07,130.7z"/>
		<path class="st2" d="M451.29,229.23c0.73-0.46,1.41-0.98,2.16-1.34c3.44-1.64,6.92,0.21,7.24,4.02c0.25,2.97,0.07,5.97,0.11,8.96
			c0.01,0.83-0.26,1.26-1.19,1.26c-0.92,0-1.45-0.21-1.44-1.26c0.03-2.68,0.04-5.36-0.03-8.04c-0.06-2.43-1.04-3.5-3.02-3.49
			c-2.27,0-3.94,1.58-3.95,3.73c-0.01,2.45,0,4.9-0.01,7.35c0,0.81,0.22,1.69-1.15,1.72c-1.47,0.04-1.35-0.87-1.35-1.81
			c0.01-3.52-0.04-7.05,0.05-10.57c0.02-0.76-0.67-1.97,0.78-2.25C450.82,227.26,450.75,228.59,451.29,229.23z"/>
		<path class="st2" d="M328.6,229.14c0.79-0.46,1.48-0.96,2.24-1.3c3.36-1.48,6.63,0.16,6.99,3.75c0.32,3.1,0.14,6.26,0.2,9.39
			c0.02,0.93-0.48,1.14-1.3,1.17c-1.01,0.04-1.33-0.39-1.32-1.36c0.04-2.6,0.04-5.2,0-7.8c-0.03-2.49-1.07-3.67-3.1-3.64
			c-2.33,0.04-3.82,1.52-3.83,3.81c-0.01,2.45-0.01,4.9,0.01,7.34c0.01,0.92-0.03,1.63-1.3,1.64c-1.24,0.01-1.35-0.64-1.34-1.58
			c0.02-3.52-0.03-7.04,0.03-10.55c0.01-0.83-0.51-1.97,0.63-2.42C327.89,227.04,328.01,228.53,328.6,229.14z"/>
		<path class="st2" d="M479.74,234.74c0-1.99,0-3.98,0-5.96c0-0.55,0.01-1.13,0.72-1.23c0.54-0.08,1.28-0.02,1.4,0.51
			c0.38,1.74,1.07,0.81,1.82,0.34c4.13-2.57,7.97-0.56,8.13,4.29c0.09,2.67,0.02,5.35,0.05,8.03c0.01,0.88-0.13,1.43-1.24,1.43
			c-1.07,0-1.29-0.48-1.28-1.4c0.03-2.6,0.04-5.2-0.01-7.8c-0.04-2.42-1.18-3.65-3.19-3.6c-2.23,0.05-3.76,1.51-3.77,3.66
			c-0.02,2.45-0.01,4.89,0.01,7.34c0,0.96,0.06,1.82-1.37,1.79c-1.48-0.03-1.27-1.02-1.28-1.9c-0.02-1.83-0.01-3.67-0.01-5.51
			C479.72,234.74,479.73,234.74,479.74,234.74z"/>
		<path class="st2" d="M378,231.77c0-2.9,0.05-5.81-0.02-8.71c-0.03-1.19,0.36-1.58,1.58-1.59c1.34-0.01,1.23,0.77,1.23,1.63
			c-0.01,4.74,0.1,9.48-0.05,14.21c-0.07,2.09,0.64,2.68,2.62,2.5c1.67-0.16,3.37-0.02,5.05-0.02c0.72,0,1.38-0.02,1.38,1.02
			c0.01,0.97-0.34,1.35-1.35,1.34c-2.99-0.04-5.97-0.06-8.96,0.01c-1.31,0.03-1.51-0.6-1.5-1.68
			C378.02,237.58,377.99,234.67,378,231.77z"/>
		<path class="st2" d="M262.05,234.84c-1,0-2.01,0.11-2.99-0.02c-2.24-0.29-2.18,0.8-1.62,2.39c1.04,2.93,3.7,3.87,6.98,2.43
			c0.76-0.33,1.7-1.36,2.31-0.04c0.56,1.22-0.72,1.49-1.49,1.84c-3.21,1.49-7,0.89-8.93-1.36c-2.16-2.53-2.35-7.4-0.39-10.13
			c1.52-2.13,4.49-3.11,7.21-2.4c2.21,0.58,3.8,2.57,4.12,5c0.2,1.58-0.07,2.53-1.99,2.3C264.21,234.73,263.12,234.84,262.05,234.84
			z M261.03,233.3c0.46,0,0.95,0.1,1.38-0.02c0.85-0.23,2.24,0.72,2.5-0.73c0.24-1.31-0.6-2.43-1.8-2.93
			c-1.55-0.65-3.14-0.62-4.52,0.57c-0.8,0.69-1.45,1.68-1.19,2.59c0.26,0.93,1.46,0.44,2.26,0.52
			C260.11,233.35,260.57,233.31,261.03,233.3z"/>
		<path class="st0" d="M402.31,234.84c-0.92,0-1.84,0-2.76,0c-2.53,0.01-2.78,0.38-1.81,2.69c1.14,2.71,3.82,3.51,6.95,2.08
			c0.78-0.36,1.7-1.28,2.27,0.08c0.48,1.13-0.73,1.34-1.4,1.68c-4.05,2.03-8.55,0.63-10.13-3.1c-1.87-4.41-0.13-9.21,3.82-10.53
			c4.2-1.4,7.87,0.99,8.24,5.28c0.12,1.43-0.31,1.96-1.75,1.84C404.61,234.76,403.46,234.83,402.31,234.84z M401.19,233.31
			c0.46,0,0.94,0.09,1.38-0.02c0.86-0.21,2.25,0.7,2.52-0.73c0.25-1.28-0.55-2.46-1.77-2.95c-1.63-0.66-3.31-0.65-4.7,0.7
			c-0.69,0.67-1.3,1.57-1.04,2.43c0.31,1.03,1.45,0.44,2.23,0.55C400.26,233.37,400.73,233.32,401.19,233.31z"/>
		<path class="st2" d="M422.95,240.34c-1.64,1.26-3.24,2.06-5.21,1.92c-1.88-0.14-3.21-0.89-3.65-2.84
			c-0.44-1.94,0.39-3.24,2.04-4.15c1.44-0.8,3.05-0.93,4.61-1.28c0.79-0.18,2.24,0.66,2.17-1.13c-0.06-1.51-0.36-2.94-2.12-3.4
			c-1.35-0.35-2.57,0.07-3.69,0.83c-0.75,0.51-1.6,0.9-2.12-0.17c-0.51-1.04,0.6-1.28,1.16-1.62c2.15-1.31,4.49-1.69,6.77-0.52
			c2.2,1.12,2.51,3.27,2.45,5.52c-0.05,2.06,0.05,4.13-0.04,6.19c-0.03,0.82,0.58,2.01-0.64,2.39
			C423.49,242.45,423.36,241.14,422.95,240.34z M421.29,235.67c-3.27,0.15-4.91,1.11-4.83,2.83c0.08,1.77,1.34,2,2.73,1.95
			c2.33-0.09,3.72-1.42,3.79-3.33C423.04,235.66,422.34,235.44,421.29,235.67z"/>
		<path class="st0" d="M222.97,242.23c-4.68,0.02-7.4-3.02-7.34-7.84c0.06-4.38,3.03-7.2,7.32-6.97c2.18,0.11,3.76,1.12,4.75,3.07
			c1.67,3.3,1.07,4.35-2.52,4.34c-1.84,0-3.69,0.09-5.52-0.02c-1.4-0.09-1.49,0.56-1.32,1.64c0.43,2.8,2.95,4.47,5.76,3.71
			c0.66-0.18,1.29-0.48,1.91-0.78c0.63-0.31,1.26-0.74,1.78,0.12c0.64,1.08-0.4,1.34-0.96,1.67
			C225.56,241.93,224.15,242.28,222.97,242.23z M222.23,233.31c0.77,0,1.54-0.06,2.3,0.01c1.89,0.17,1.87-0.74,1.25-2.06
			c-1.18-2.53-5.05-2.8-6.68-0.44c-0.42,0.61-1,1.33-0.6,2.09c0.38,0.74,1.25,0.32,1.9,0.38C221,233.36,221.62,233.31,222.23,233.31
			z"/>
		<path class="st0" d="M297.32,229.32c0.84-0.53,1.5-1.06,2.25-1.41c3.53-1.69,7.06,0.3,7.26,4.19c0.15,2.82,0.02,5.66,0.05,8.49
			c0.01,0.96-0.08,1.6-1.33,1.55c-1.13-0.05-1.16-0.61-1.15-1.49c0.03-2.52,0.02-5.05-0.04-7.57c-0.06-2.58-1.02-3.72-3.05-3.74
			c-2.36-0.03-4.02,1.57-4.03,3.9c-0.01,2.45,0.01,4.89,0.01,7.34c0,0.77,0.07,1.53-1.12,1.57c-1.22,0.04-1.36-0.6-1.35-1.58
			c0.03-3.59-0.02-7.19,0.04-10.78c0.01-0.75-0.52-1.85,0.61-2.19C296.74,227.21,297.06,228.33,297.32,229.32z"/>
		<path class="st2" d="M435.74,230.24c1.38-1.98,2.79-3.18,4.97-2.83c0.78,0.13,1.32,0.38,1.17,1.31c-0.13,0.83-0.34,1.3-1.45,1.24
			c-3.22-0.19-4.59,1.18-4.66,4.42c-0.04,2.06-0.05,4.12,0,6.19c0.02,0.99-0.16,1.56-1.35,1.57c-1.29,0.01-1.28-0.74-1.28-1.64
			c0.01-3.59-0.03-7.18,0.04-10.77c0.02-0.77-0.61-2.01,0.85-2.2C435.77,227.32,435.34,228.8,435.74,230.24z"/>
		<path class="st2" d="M471.4,234.92c0,1.91-0.02,3.82,0.01,5.73c0.01,0.84-0.06,1.48-1.18,1.5c-1.11,0.02-1.45-0.41-1.44-1.48
			c0.04-3.9,0.03-7.8-0.01-11.7c-0.01-1.06,0.31-1.5,1.45-1.48c1.12,0.02,1.2,0.61,1.19,1.47
			C471.38,230.94,471.4,232.93,471.4,234.92z"/>
		<path class="st1" d="M315.02,234.84c0-1.98,0.03-3.96-0.01-5.94c-0.02-0.92,0.23-1.37,1.27-1.39c1.16-0.02,1.19,0.63,1.19,1.46
			c-0.01,3.96-0.01,7.92,0.01,11.88c0,0.81-0.2,1.26-1.14,1.28c-1.02,0.02-1.35-0.4-1.33-1.35
			C315.05,238.8,315.02,236.82,315.02,234.84z"/>
		<path class="st2" d="M471.87,223.22c-0.08,0.92-0.72,1.48-1.76,1.51c-1.12,0.03-1.74-0.71-1.77-1.7c-0.03-1.15,0.76-1.89,1.9-1.82
			C471.23,221.27,471.89,221.93,471.87,223.22z"/>
		<path class="st2" d="M316.2,221.17c0.95,0.24,1.79,0.58,1.78,1.73c-0.01,1.17-0.61,1.83-1.82,1.83c-1.14-0.01-1.61-0.72-1.62-1.76
			C314.52,221.87,315.23,221.38,316.2,221.17z"/>
	</g>
</g>
<g id="Layer_4">
	<path class="st3" d="M167.09,170.39h6.13c-4.17-17.23-34.13-21.06-41.45,0c-10.72,39.62,40.85,46.26,42.55,9.66l-26.64,0v5.36
		l20.09,0c0.77,15.15-26.3,21.19-31.15,0.6C131.17,160.13,158.91,151.87,167.09,170.39z"/>
	<path class="st3" d="M179.17,203.53h5.7v-45.36c0-2.72-5.7-2.64-5.7,0V203.53z"/>
	<path class="st3" d="M206.15,168.05c-22.47,2.34-20.26,34.3-0.77,35.49h2.3C229.89,199.37,224.53,168.05,206.15,168.05z
		 M206.49,198.77c0,0-1.03,0.11-1.79,0c-14.67-3.06-10.13-26.13,1.44-25.36C220.96,174.18,219.51,198.01,206.49,198.77z"/>
	<path class="st3" d="M242.63,168.36c-21.07,2.34-19,34.3-0.72,35.49h2.16C264.89,199.68,259.87,168.36,242.63,168.36z
		 M242.95,199.08c0,0-0.97,0.11-1.68,0c-13.76-3.06-9.5-26.13,1.35-25.36C256.52,174.49,255.16,198.32,242.95,199.08z"/>
	<polygon class="st3" points="232.6,175.19 232.6,156.47 227.17,156.47 227.51,186.41 	"/>
	<path class="st3" d="M267.43,169.75v4.43c11.2-2.84,16.42-1.24,16.25,4.34c-0.08,9.27-21.87,0.59-22.55,13.7
		c0,17.27,26.55,12.76,27.66,0v-17.11C288.79,169.41,277.64,166.18,267.43,169.75z M283.6,193.15c0,4.34-15.75,11.24-17.11,0
		c-0.09-5.08,6.85-5.2,17.11-7.05V193.15z"/>
	<path class="st3" d="M294.79,203.54h5.7v-45.36c0-2.72-5.7-2.64-5.7,0V203.54z"/>
</g>
<g id="Layer_5">
	<path class="st4" d="M323.68,156.64v46.9c0,0,27.83-0.08,27.91,0c0.09,0.08,0.09,0.08,0.09,0.08v-4.77l-22.13,0.17v-17.45
		l19.32-0.09v-4.85l-19.15,0.43l0.09-15.15l21.36-0.17l-0.17-5.11H323.68z"/>
	<path class="st4" d="M369.43,168.33c-21.07,2.34-19,34.3-0.72,35.49h2.16C391.69,199.65,386.66,168.33,369.43,168.33z
		 M369.74,199.05c0,0-0.97,0.11-1.68,0c-13.76-3.06-9.5-26.13,1.35-25.36C383.31,174.46,381.95,198.29,369.74,199.05z"/>
	<polygon class="st4" points="384.46,187.52 384.46,157.11 379.03,157.11 379.37,180.46 	"/>
	<path class="st4" d="M410.43,169.3h6.06v24.19c-2.94,13.6-24.7,13.4-26.17-0.38V169.3h6l-0.13,22.79
		c1.47,9.45,12.89,9.38,14.3,0.06L410.43,169.3z"/>
	<path class="st4" d="M442.02,169.3v5.17c-6.7-2.62-15.13-1.53-15.19,11.49c0.45,13.9,8.74,14.55,15.19,11.17v5.74
		c-11.3,2.74-21.13-2.36-21.13-16.79C420.57,173.51,430.85,165.66,442.02,169.3z"/>
	<path class="st4" d="M451.79,169.85v4.43c11.2-2.84,16.42-1.24,16.25,4.34c-0.08,9.27-21.87,0.59-22.55,13.7
		c0,17.27,26.55,12.76,27.66,0v-17.11C473.15,169.51,462,166.28,451.79,169.85z M467.96,193.25c0,4.34-15.75,11.24-17.11,0
		c-0.09-5.08,6.85-5.2,17.11-7.05V193.25z"/>
	<path class="st4" d="M489.47,169.32v-11.66c0.13-2.64-5.79-2.47-5.7,0v11.66c-8.19,0.32-7.76,5.68,0,5.62c0,0,0.09,22.55,0,22.72
		s-0.09,0.17-0.09,0.17c0.09,3.66,2.62,5.68,5.79,5.75l5.45,0.06v-5.21l-3.91,0.09c-0.89-0.15-1.52-0.82-1.7-2.38v-21.02l6.21-0.17
		v-5.45L489.47,169.32z"/>
	<circle class="st4" cx="503.76" cy="162.09" r="2.81"/>
	<path class="st4" d="M501.26,203.88h5.32v-33.96c0-2.04-5.32-1.98-5.32,0V203.88z"/>
	<path class="st4" d="M555.36,203.13h-6.06v-24.19c2.94-13.6,24.7-13.4,26.17,0.38v23.81h-6l0.13-22.79
		c-1.47-9.45-12.89-9.38-14.3-0.06L555.36,203.13z"/>
	<path class="st4" d="M527.37,168.25c-22.47,2.34-20.26,34.3-0.77,35.49h2.3C551.11,199.57,545.75,168.25,527.37,168.25z
		 M527.71,198.97c0,0-1.03,0.11-1.79,0c-14.67-3.06-10.13-26.13,1.44-25.36C542.18,174.38,540.73,198.21,527.71,198.97z"/>
</g>
<g id="Layer_3" class="st5">
	<path class="st6" d="M157.47,121.62c1.15,1.53,4.21-0.06,3.06-2.11c-5.62-10.09-20.94-6.26-21.32,3.38
		c0.19,11.94,18.96,5.23,18.89,14.68c0,6.45-13.53,8.3-15.64,0.45h-3.83c-0.38,9.32,21.26,13.28,23.36,0
		c-1.28-14.43-17.64-7.09-18.77-14.81C142.06,116.75,154.28,114.73,157.47,121.62z"/>
</g>
<g id="Layer_2">
	<path class="st7" d="M51,102.85l30.64-15.83L111,101.07c-0.65,2.49-8.95,6.73-15.15,9.36l-0.26,9.11
		c-1.96,13.28-25.02,17.19-28.09-1.11l-0.34-8.09L51,102.85z"/>
	<path class="st7" d="M107.49,101.26c0,0-0.17,11.47,0.45,12.7c0.52,0.45,1.21-0.13,2.04,1.85s0,3.19,0,3.19h-5.68
		c0,0-0.79-3.85,1.79-4.79c0.51-3.2-1.69-12.43-1.69-12.43L107.49,101.26z"/>
	<path class="st8" d="M143.3,99.66l7.09-6.13c-15.8-5.88-32.27-5.84-49.34-0.64c10.66,5.68,10.66,5.68,10.66,5.68
		C112.32,98.13,131.77,95.23,143.3,99.66z"/>
	<path class="st8" d="M116.3,120.47c0,0,9.13-6.38,9.13-6.45c0-0.06,0-0.06,0-0.06l11.3-19.28c-2.2,4.88-4.54-7.44-7.53-1.09
		C122.55,107.71,116.3,120.47,116.3,120.47z"/>
	<path class="st8" d="M64.66,118.24l0.89,3.96c0,0-4.47,4.28-6.13,9.32c-2.43-0.38-1.26-0.31-3.26-0.67
		C55.66,131.64,57.89,125.64,64.66,118.24z"/>
	<path class="st8" d="M137.49,240.47l-3.64,0.9l-5.94,0.83c0,0,0,0-4.91,0.19s-5.43,0-5.43,0l3.26-11.94l2.55,1.09l-11.36-8.68
		l-6.19-3.58l-6.64-4.27c0,0,0,0-6.38-4.54c-5.92-4.2-6.13-4.62-6.13-4.66l-6.57-5.93l-5.81-6l-7.73-9.77l-5.29-9.19l-4.79-11.74
		l-9-12.52h-0.45l-0.57,1.86l-1.02,6.31l-0.51,7.22v6.7l0.38,5.81l0.77,5.93c0,0,0,0,1.4,6.39c1.4,6.38,1.6,6.06,1.6,6.06l1.78,5.24
		l1.73,4.14l2.49,4.6l2.55,4.21l2.62,3.77l2.68,3.45l3.25,3.51l3.26,3.12l3.83,3.26l4.34,3c0,0,0,0,2.93,1.85
		c2.94,1.85,3.77,2.04,3.77,2.04l5.04,2.49l5.62,1.85l6.76,1.85l6.64,1.15l6.19,0.51h6.96l7.47-0.25l7.21-0.77l5.3-1.27l2.94-0.96
		L137.49,240.47z M65.3,203.83l-2.17,3.52l-1.79-2.88l-1.72-3.06l-1.47-4.28l-1.47-4.27l-1.47-5.62c-0.01,0-0.37-0.05-1.27-7.66
		c-0.43-4.01-0.39-6.83-0.39-6.83l0.39-8.11l1.21,3.39l1.08,2.93l1.92,3.64l1.79,3.83l2.68,4.34l2.68,4.47l2.68,3.77l3.25,3.63
		l-0.76,1.34l-2.49,3.58L65.3,203.83z M90.13,226.94l-2.17,3.83l-1.41,1.85l-3.57-1.85l-4.41-3.51l-3.19-2.81l-2.87-2.74l-2.36-2.36
		l-2.17-2.65v-0.35c0,0,9.19-15.45,9.19-15.52c0-0.06,0-0.06,0-0.06l6.13,5.87l4.72,3.58l4.09,3.32l3.83,2.81c0,0-0.2,0.76-3,5.68
		C90.13,226.94,90.13,226.94,90.13,226.94z M114.26,229.49c-0.52,1.86-1.03,3.39-1.03,3.39l-1.4,5.36l-1.02,3.83l-2.36-0.32
		l-2.94-0.7c0,0-2-0.49-3.9-1.2c-3.73-1.22-4.23-1.51-4.23-1.51l-3.29-1.71l8.87-15.89l2.3,1.66l2.48,1.21l3.58,1.98l3.45,2.04
		C114.77,227.64,114.77,227.64,114.26,229.49z"/>
	<path class="st9" d="M27.51,110.13C41.6,127.88,58.7,139.53,81,140.64c-5.23,24,0.96,40.85,18.77,41.36
		c0.18-0.48,3.32-11.74,3.32-11.74c-8.74-8.29-15.93-17.87-19.91-30.13c23.92-6.88,43.34-22.34,67.21-43.4
		c-51.24,49.86-47.55,97.53,2.49,147.32C103.09,226.94,47.94,154.94,27.51,110.13z"/>
	<path class="st10" d="M125.3,113.96l-9.19,6.77l11.23-23.23c-4.29-0.3-9.17,0.14-14.68,1.4l-12-5.62c16.68-5.44,33.36-5.79,50.04,0
		l-7.4,6.38c-2.77-0.5-5.57-1.01-8.43-1.53L125.3,113.96z"/>
	<path class="st10" d="M64.7,117.83l0.68,4.34c-2.34,2.73-4.47,6.15-6.47,10.04l-2.89-1.37C58.02,126.15,60.92,121.81,64.7,117.83z"
		/>
	<path class="st10" d="M137.38,240.3c-5.66,1.73-12.31,2.39-19.83,2.13l2.98-11.66l2.98,0.77l-13.36-9.79
		c-25.43-14.03-44.08-33.06-53.7-58.72l-8.85-12.51c-14.3,60.42,31.83,109.19,96.76,93.53L137.38,240.3z M63.26,207.79
		c-7.56-11.8-10.24-26.63-9.54-43.57c4.5,12.04,10.32,22.32,17.71,30.55L63.26,207.79z M67.77,216.39l9.19-15.49
		c5.36,5.59,11.84,10.74,19.15,15.57l-9.62,16.26C79.21,228.26,72.95,222.82,67.77,216.39z M110.91,242.09
		c-6.47-0.65-12.11-2.37-16.93-5.19l9.02-15.92c3.43,2.49,7.52,4.62,12,6.56L110.91,242.09z"/>
</g>
</svg>
