<?xml version="1.0" encoding="utf-8"?>
<!-- Generator: Adobe Illustrator 24.2.0, SVG Export Plug-In . SVG Version: 6.00 Build 0)  -->
<svg version="1.1" id="Layer_1" xmlns="http://www.w3.org/2000/svg" xmlns:xlink="http://www.w3.org/1999/xlink" x="0px" y="0px"
	 viewBox="0 0 1210.9 427" style="enable-background:new 0 0 1210.9 427;" xml:space="preserve">
<style type="text/css">
	.st0{fill-rule:evenodd;clip-rule:evenodd;fill:#77BD44;}
	.st1{fill:#004967;}
	.st2{font-family:'CaveatBrush-Regular';}
	.st3{font-size:102.3305px;}
</style>
<path id="Shape" class="st0" d="M0.2,77.2c0,5,1.1,7.1,3.2,6.5c2-0.6,2.7,0.3,1.6,2.3c-1,1.7-0.8,3.8,0.5,5.3
	c1.2,1.1,1.7,4.8,1.3,8.2s0,6.3,1.1,6.5c1.6,0.2,5.5,11.9,5.1,15.1c-0.1,0.7-1.6,1-3.5,0.8c-1.7-0.1-3-1.6-2.9-3.3
	c0-0.1,0-0.1,0-0.2c0.2-1.7-0.3-2.4-1.2-1.6s0.2,5.4,2.5,10.4c2.3,5,3.5,12,2.6,15.7c-1.2,5.5-0.5,6.8,3.7,7.2
	c3.2,0.3,5,1.9,4.6,4.4c-0.3,2.2-1.7,3.4-3.3,2.8c-1.2-0.5-2.5,0-3,1.2c-0.1,0.2-0.1,0.4-0.2,0.6c-0.2,1.7,1.1,2.5,3.1,1.9
	c1.9-0.7,3.9,0.2,4.7,2c0.8,2,0.3,2.2-1.4,0.7c-2-1.8-2.4-0.8-1.7,4c0.5,3.5,1.7,6.8,2.7,7.4s1.4,4.4,0.8,8.5s-0.3,7.5,0.7,7.6
	c0.9,0.1,4,5.9,6.9,12.7s6.8,13.3,8.7,14.3c1.9,1,4.8,5,6.3,8.7s3.7,6.3,4.9,5.7s2.3,1.1,2.6,3.6c0.4,4.3,0.5,4.3,1.3,0.3
	c1.1-5.6,3.1-5.5,9,0.6c4,4.1,5.1,4.4,7.2,1.7c2.1-2.8,2.3-2.8,1.9,0.4c-0.3,1.9,0.2,3.1,1.1,2.4s3.2,1,5.1,3.5
	c1.9,2.7,7.7,10.7,12.9,18.2c7.1,10.1,10.7,13.3,14.5,12.7c2.7-0.4,4.8,0.4,4.7,1.7c-0.5,3.6,12.4,7.2,14.1,3.9c0.8-1.6,2-1.1,3,1.3
	c0.9,2.1,2.8,3.3,4.2,2.6c1.3-0.6,2.8-0.1,3.5,1.2c0,0.1,0.1,0.2,0.1,0.3c0.6,1.5,1.9,2.6,3.5,3.1c1.3,0.2,1.9-0.6,1.3-1.6
	c-0.7-1.1,0.3-3.4,2.1-5.4c2.5-2.6,2.5-3.1,0.3-2.1c-1.7,0.8-4.6-1-6.6-4c-4.4-6.6-2.1-10.2,2.5-3.9c1.8,2.5,4.2,4.4,5.3,4.4
	c5-0.3,7.2,1.5,7.7,6.4c0.4,4.1-0.6,5.2-4.4,4.9c-9.1-0.7,26.9,11.4,43.4,14.6c3.8,0.7,8.4,3.1,10.1,5.3c2.2,2.3,5.3,3.4,8.5,3.1
	c6-0.9,16.4,4,28.2,13.3c5.3,4.2,8.5,5.4,9.7,3.6c1-1.4,4.8-1.7,8.3-0.6c14,4.3,32,7.2,32.3,5.2c0.2-1.2,5.7-0.7,12.5,1.1
	c7.1,1.9,12.3,2.3,12.5,0.8c0.3-2.4,3.6-2.9,13.5-1.9c3.6,0.3,4.9-0.7,4.4-3.5c-0.5-2.6,0.2-3.4,1.9-2.3c1.4,0.8,2.3,2.8,1.9,4
	c-0.8,2.4,8.1,2.9,15.1,0.9c4.2-1.2,6.9-1.5,12.3-1.2c2.2,0.1,3.7-0.9,3.2-2.2c-0.5-1.3,0.6-2.1,2.3-1.9s2.5,1.4,1.7,2.5
	c-0.8,1.1,0.5,2.3,3.1,2.6s4.7-0.5,4.9-1.9c0.2-1.5,2.6-1.6,5.7-0.2c3.5,1.5,5.5,1.3,5.7-0.7c0.2-1.7,1.3-2.3,2.3-1.3
	c1,0.9,2.6,0.4,3.4-1.3c0.9-1.8,1.3-1.3,1.1,1.4c-0.6,6.2,6.4,6.6,8.7,0.4c1.5-4,3-4.6,6.4-2.8c7.1,3.7,12.6,3.5,16.1-0.6
	c3-3.6,3.4-3.5,5.8,0.8c2.3,4.1,3,4.2,7.2,0.8c2.9-2.4,6.9-3,10.4-1.6c7,2.6,12.5,1.4,11.1-2.3c-0.6-1.5,0.6-3.7,2.4-4.7
	c4.9-2.6,6.8-1.9,6.2,2.2c-0.3,2,1.6,4.6,4,5.7c4.7,2.1,10.9,1.2,11.3-1.6c0.1-0.9,5.5-1,12.1-0.1s12.5,0.8,13.4-0.2
	s7.6-1.4,14.9-0.9s15,0.4,17-0.2c5.4-1.7,18.1-2.1,34.3-1.2c21.1,1.2,22,1.1,29.1-4.8c3.7-3,6.5-4.4,6.3-3
	c-0.3,2.4,19.1,5.3,21.5,3.1c0.8-0.7,3.5-0.1,6.1,1.6s6.4,2.1,8.7,1c2.3-1,9.3-1.3,15.9-0.6s12.9,0.8,14.2,0.2
	c1.3-0.6,7.5-0.7,13.7-0.2c18.7,1.4,30.9,0.3,31.4-3c0.3-1.9,1-1.6,2,1c1.3,3.3,3.7,3.7,15,2.5c7.4-0.8,24.5-0.5,38.3,0.6
	s25.9,1.3,27.3,0.5s5.8-0.7,10.1,0.4c4.4,1.1,8.5,0.6,9.8-1.1c1.8-2.5,2.2-2.4,1.8,0.1c-0.2,1.7,1.8,3.5,4.4,3.8
	c4.3,0.6,4.5,0.1,2.3-4c-2.3-4.2-2.1-4.4,1.5-2.3c6.6,3.9,31.3,9.3,28.3,6.1c-2.2-2.3-2-3,1.4-4c5.4-1.6,5.8-1.3,5.3,2.9
	c-0.3,2.5,2.9,4.7,10.5,6.9c6.1,1.8,11.9,4.9,13,7c2.5,4.6,10.8,6.1,23,4c11.6-2,28.5-3.1,49.6-3.5c9.4-0.1,17.8-1.4,18.4-2.8
	c0.8-1.8,2.1-1.4,4.2,1.2c1.7,2.1,3.3,3.5,3.8,3.2c0.4-0.3,1-0.4,1.4-0.2c5.1,2.6,10.4,3.3,11.7,1.6c0.9-1.2,3.5-1.4,5.8-0.3
	c2.7,1.1,5.7,1,8.4-0.1c3-1.2,6.4-0.9,9.1,0.9c3.6,2.2,4.9,1.9,5.3-0.9c0.3-2.2,2.7-3.5,5.7-3.2c3,0.3,6.1,0.4,9.1,0.2
	c2.2-0.2,4.4,0.8,4.9,2.1c0.5,1.4,3.7,2.1,7.1,1.6c4-0.6,5.4,0,4.2,1.7c-1.2,1.7,0,2.3,3.4,1.7c4.2-0.7,4.5-1.2,1.4-2.4
	c-2.1-0.8-3.7-2.5-3.5-3.7c0.2-1.2-2.2-2.2-5.2-2.2s-5.8-1.7-6.2-3.8c-0.4-2,0.2-3,1.2-2.1c1.1,1,2.5,0.8,3.5-0.5
	c1.6-2.2,13.8,0.3,21.1,4.3c2.3,1.3,2.2,0.3-0.1-3.7c-4.1-6.9-3.7-7.9,3.2-9c3.3-0.5,5.5-2.1,4.9-3.5c-0.6-1.4,0-2.5,1.3-2.3
	s2.6-1.9,3-4.6c0.5-3.6,2-4.6,6.1-3.8s4.7,1.9,2.6,4.1c-1.4,1.5-2.1,3.9-1.4,5c0.7,1.1,2.9,0.1,4.8-2.1s4.4-4,5.5-3.8s4-1.7,6.4-4.1
	c4-3.9,4.1-4.7,1.4-8c-2.4-2.9-3.4-3-5.4-0.4c-2,2.7-2.5,2.5-3.2-1.1c-0.5-2.9-4.8-5.4-12.8-7.7c-6.5-1.8-13.1-4.9-14.4-6.8
	c-1.9-2.5-4.1-4.8-6.4-6.9c-2.1-1.9-3.5-4.8-3-6.4c0.7-2-0.5-2.2-3.9-0.7c-6.1,2.7-13.7-0.9-16.8-8c-2.2-5-2.7-5.2-5.1-1.7
	c-1.4,2-3.8,3.7-5.2,3.5c-1.3-0.2-1.6-1.1-0.7-1.8c0.9-0.8,0.3-3-1.4-4.8c-2.7-2.8-1.6-4,7.2-8.1c8.3-3.9,9.9-4.1,8.4-0.9
	c-1.6,3.2-0.7,4,4.8,4c4.3,0,6.6,1.2,6.3,3.2c-0.4,3.1,5.2,8.4,8.5,8c1-0.1,1.6,1.1,1.3,2.9s0.3,2.4,1.2,1.6s4,0.1,7,1.9
	c6.2,3.7,19.2,3.3,17.7-0.6c-0.3-1.2-1.5-2-2.7-1.7c-0.2,0.1-0.4,0.1-0.6,0.2c-4.1,2.1-10.3-2.6-13.3-10c-2.8-7.1-2.8-7.1,1.9-3
	c3,2.5,6.5,4.3,10.2,5.4c3,0.7,10.7,2.7,17,4.5c8.4,2.4,11.6,2.5,11.9,0.3c0.3-1.8,1.9-2.2,4.2-1.1c2.4,1.1,5.1,1,7.5-0.1
	c3.1-1.7,2.9-2.5-0.9-4.2c-2.8-1.4-4.7-4.1-5.1-7.3c-0.3-4.2-2.4-5.4-11.4-6.6c-6-0.8-12.6-3.2-14.5-5.2c-3-3.1-1.5-3.4,10-1.9
	c7.5,1,13.4,2.7,13.3,3.8c-0.2,1.2,0.4,1.9,1.5,1.8c0.9-0.1,6.4,3.1,12,6.9s10.8,6.5,11.6,5.8c0.8-0.8,0.6-1.4-0.4-1.6
	c-1-0.1-0.3-1.8,1.6-3.8c4-4.2,7.7-4.1,6.3,0.1c-0.6,1.7,0.7,3.8,2.7,4.6c3,1.2,4-0.3,4.9-7.6c0.7-5.1,2.2-9,3.5-8.8
	c1.2,0.2,2.5-1.5,2.8-3.7c0.3-2.4-1-3.9-3.4-3.7c-2.5,0.2-4.2,2.4-4.5,6.1c-0.3,3.2-1.3,5.1-2.1,4.3c-2.3-2.2-16.2,1.8-15.3,4.4
	c0.5,1.4-0.1,2.9-1.4,3.5c-1.3,0.7-1.6-2.6-0.7-7.4c1-5.3,2.5-8,4-7.1c1.4,0.8,3.2,0.4,4.1-0.9c1-1.3,3.4-1.6,5.4-0.5
	c3.4,1.8,3.5,1.7,0.3-1.4c-1.8-1.8-6.6-3.1-10.6-2.8c-7.9,0.5-13.2-4-12.3-10.5c0.4-2.9,1-3.1,1.9-0.7c1.9,4.7,11.3,6.9,13.1,3
	c0.8-1.7-0.5-3.3-3.1-3.6c-4.3-0.6-11.1-9.1-6.9-8.6c1.1,0.1,0.7-1-1.1-2.6c-2.4-2.3-1.6-3.3,3.8-4.8c7.5-2.1,13.9,0.3,11.1,4.1
	c-0.7,1.2-2.3,1.6-3.5,0.9c-0.1-0.1-0.2-0.1-0.3-0.2c-1.1-0.9-2.1-0.5-2.3,0.9s1.6,2.9,3.9,3.3c2.4,0.3,4.5,2.8,4.7,5.9
	s1.5,5.4,2.8,5.6c1.3,0.2,2-1.5,1.6-3.8c-0.5-2.5,0.5-3.9,2.7-3.6c2,0.2,3.9-0.8,4.9-2.6c0.8-1.6,1.8,0.4,2.2,4.4
	c0.5,5,1.8,7.1,4.1,6.5c1.8-0.5,2.6,0.1,1.7,1.3c-1,1.4-1,2.4,0.1,2.7c1,0.3,3.4,1.1,5.5,1.9s3.9,0.3,4-0.9c0.2-1.3-1.1-2.5-3-2.8
	s-3.2-1.6-2.9-3.1c0.2-1.5,1.3-1.8,2.4-0.8c1.2,1.1,2.2,0.8,2.4-0.7c0.1-1.7-0.5-3.3-1.7-4.4c-1.2-1.1-1.3-2.9-0.4-4.1
	c0.9-1.3,0.7-2.4-0.6-2.6c-1.2-0.2-2.8,1.1-3.5,2.8c-0.9,2.2-2.2,1.7-4.5-1.7c-2-2.8-4.5-5.2-7.5-7c-7.7-4-1.5-6.6,9-3.8
	c9.2,2.5,10,2.4,7.8-1.7c-1.3-2.4-4-4.1-5.7-3.6c-1.8,0.5-2.6,0-1.8-1.1c0.8-1.1,0.1-2.9-1.7-4.1c-2-1.3-2.8-0.9-2.1,1
	c0.6,1.7-1.2,0.8-4.1-2s-6.5-4.4-8.1-3.6s-2.2,0.4-1.2-0.9s-0.6-4.1-3.6-6.2c-5.2-3.7-5.3-3.6-4.8,2.8c0.3,4-0.5,6.5-1.9,6.3
	c-0.7,0-1.3-0.6-1.3-1.4c0-0.4,0.2-0.7,0.4-1c0.9-1.2,0.3-2.8-1.5-3.9c-1.7-1-2.3-3.6-1.3-5.8c1.2-2.5,0.6-4-1.8-4.3
	c-1.9-0.3-3.5-1.7-3.3-3c0.1-1.2-0.8-2.3-2-2.5c-0.2,0-0.3,0-0.5,0c-1.5,0.1-5.7-1.8-9.1-4c-4.3-2.6-9-4.8-13.8-6.3
	c-13.6-4-18.3-9.2-17-18.7c1.4-10.5,5.1-15.2,11.6-14.9c3.9,0.2,4.4-0.6,2.9-4.6c-1.2-3.1-2.8-4.1-4.6-2.9c-1.8,1.3-3.7-0.6-5.6-5.8
	c-2.8-7.8-2.8-7.8,2.1-5.9c4.5,1.8,4.7,1.6,1.4-2.4c-4.3-5.2-4-7.5,1-7c3.2,0.3,3.4,0,0.9-1.6c-1.7-1-3.1-2.4-4.1-4.1
	c-0.5-1.3-3.6-3.2-7.1-4.4c-8.3-2.9-9.1-4.6-5-10c4.6-6.1,4.6-6.1-2.5-6.9c-5.7-0.7-6.1-1.6-4.8-10.3c0.8-5.3,0.7-9.7-0.3-9.8
	s0.7-5.1,3.6-11.2c5.4-11.2,5.1-17.2-0.6-12.2c-1.6,1.5-3.8,2.2-5.9,2.2c-3.6-0.5-2.8-8.6,1.3-12.2c1.8-1.9,2.6-4.5,2.1-7
	c-0.7-4-1.5-3.9-7.4,0.7c-6.2,4.9-11.8,9.7-18,15.5c-8.1,7.6-32.4,24.1-34.9,23.8c-1.6-0.2-5.9,1.6-9.2,3.9
	c-7.1,4.9-20.1,4.2-40.1-2.3c-6.7-2.2-16.2-3.6-21.3-3.2c-7,0.6-7.9,1.1-3.8,2.2c3.5,0.9,1.8,1.6-4.8,1.7c-5.7,0.1-11-0.8-12-2
	s-3.8-1.3-6.4-0.1c-3.2,1.5-5.5,1.1-7.4-1.4c-2.2-2.7-4.1-2.8-8.8-0.2c-5.4,3-6.1,2.9-6.8-0.9c-0.7-3.7-1.5-3.6-5.9,0.8
	c-2.8,2.8-5.6,4.8-6.3,4.5c-4.7-2-6.8,1.4-3.8,6.3c2.8,4.6,3.7,4.9,6,1.8c2.2-2.9,2.5-2.5,1.9,2.1c-0.6,4.6-2.1,5.6-7.2,4.9
	s-6.5-2.2-7-7.6c-0.6-6.5-0.8-6.6-5.5-3c-2.7,2.1-5.8,2.8-7.1,1.6c-1.2-1.1-4.1-0.8-6.3,0.8c-3.5,2.5-3.8,2.2-1.9-2.2
	c1.7-4,1.2-5.2-2.3-5.4c-6.1-0.3-8.9,2.7-5.6,5.8c2.1,2,1.5,3.1-2.9,5c-7.4,3.2-20.4,3.6-16.9,0.5c1.5-1.3,4.8-2.4,7.7-2.5
	c7-0.2,8.9-2.4,6.3-7.3c-1.3-2.4-1.6-5.2-0.7-6.4c0.8-1.1-0.1-2.4-2-2.6c-2-0.3-4.4,1.5-5.3,4.1c-1,2.7-3.7,4.3-6.5,3.9
	c-2.6-0.4-7.2-0.9-9.9-1.2c-4.3-0.5-5,0.4-4.4,5c0.6,4.3,0,5.1-2.4,3.6c-1.6-1-3.8-0.5-4.8,1.2c-0.1,0.1-0.1,0.2-0.2,0.4
	c-0.7,1.7-2.6,2.5-4.3,1.9c-0.3-0.1-0.5-0.3-0.8-0.4c-1.8-1.2-2.5-3.5-1.6-5.5c0.9-1.9,0.3-3.5-1.2-3.5c-3.5-0.2-6.9-0.7-10.4-1.3
	c-6.4-1.1-7-1.8-4.2-4.8c4.4-4.6,0-5.2-5.2-0.7c-3,2.6-4.1,2.6-4.4,0.1c-0.3-2.4-1.7-2.2-5.1,0.7c-4.9,4.2-8.9,4.5-8.3,0.7
	c0.3-1.4-0.6-2.7-2-3c-1.3-0.2-2,2-1.6,5c1,7.1-3,6.5-6.3-0.8c-1.6-3.7-3.2-4.9-4.4-3.3c-0.7,0.7-0.7,1.9,0,2.6
	c0.3,0.3,0.6,0.4,1,0.5c1.6,0.4,0.8,1.3-1.9,2.2c-7.5,2.5-10.5,1.7-8.4-2.4c1.3-2.6,0.5-3.9-2.9-4.4c-3.5-0.5-5,0.9-5.7,5.1
	c-0.5,3.2-1.2,4.2-1.6,2.3c-0.5-2.5-1.7-2.3-4.4,0.8c-3.5,4-3.7,4-3.2-0.7c0.5-4.5,0.1-4.4-4.5,0.1c-5,5-5,5-5.8-0.5
	s-6.9-8.6-7.5-3.8c-0.2,1.5,1.1,2.9,3.1,3.1s3.3,1.6,3.1,3.1c-0.6,4.4-6.5,1.9-7.5-3.3c-0.9-4.1-1.2-4.1-3.6,0.3
	c-1.5,2.8-2.5,3.4-2.3,1.6c0.2-1.7-0.7-2.8-1.9-2.2c-1.2,0.6-2.5-0.7-3-3c-0.6-3.1-1.8-3.6-5-2.2c-2.3,1-4.8,1.8-5.4,1.8
	s-5.3,0.2-10.4,0.6c-11.4,1-12.4,1-18.6,0.7c-3.3,0.1-6.6,1.2-9.1,3.3c-4.6,3.9-8.5,1.9-7.7-3.9c0.6-4.6-0.4-4.8-7.4-1.7
	c-5.5,2.4-14.5,3-25.2,1.6c-3.6-0.5-9.2,0.7-12.9,2.7c-4.2,2.4-5.6,2.5-4.1,0.3c1.9-2.6,1.1-3.1-4.2-2.6c-8.6,0.9-9.7,1-48.3,4.1
	c-17.8,1.4-37.6,3.5-44.2,4.7c-6.4,1.1-14.3,1.8-17.3,1.4c-7.3-0.9-23.4,3.3-21.8,5.7c0.7,1,0.1,1.8-1.2,1.6
	c-1.5-0.4-2.8-1.4-3.4-2.8c-0.5-1.4-4.3-2-8.5-1.3c-10.4,1.6-29.9,4.1-34.9,4.6c-2.7,0.3-5.4,1.3-7.7,2.8c-1.8,1.3-6.7,2.4-10.8,2.3
	c-15.4-0.2-26.1,1.2-28.1,3.7c-1.5,1.9-2,1.8-1.8-0.4c0.2-2.3-1.3-2.6-5.8-1.4c-3.4,0.9-15.5,2.2-27.1,2.9
	c-39,2.4-41.7,2.6-55.7,3.7c-7.7,0.6-15.4,1.6-17.4,2.3c-2,0.7-4.3,0.8-5.4,0.4s-3,0-4.7,0.9c-4,2.4-24-0.8-23.7-3.8
	c0.1-1.4,4-2.3,8.8-2.2s9.6-0.1,10.8-0.5c4.2-1.5-24.3-2-41.6-0.8c-11.2,0.8-17.9,2.7-20.3,5.7c-3.5,4.2-3.8,4.2-6.9-0.4
	c-3-4.6-10-4.1-13.5,0.9c-0.7,1-0.7,0.4,0.1-1.5c1-2.4-0.9-3.2-7.2-3c-24.5,0.9-31.2,0.5-54.4-2.6c-13.7-1.8-26-4.3-27.2-5.4
	c-1.3-1.2-2.5-0.2-2.8,2.2c-0.4,3.1-2,3.7-6,2.3c-3.1-1.1-6.7-0.6-8.5,1.2c-2,2.1-5.5,2.4-9.9,0.9c-3.7-1.3-5.6-1.5-4.2-0.4
	c1.4,1,2.2,2.6,2.2,4.3c-0.5,3.7-6.6,2.1-11.9-3.2c-4.4-4.3-5-4.3-7,0.6c-1.4,3.3-3.5,4.5-5.4,3.3C8.4,71.5-0.2,67.8,0,68.7
	C0.1,69.3,0.2,73,0.2,77.2z M1071.5,316c3.4-0.9,3.5-0.6,0.6,2.4c-4,4.2-5.3,4.5-4.9,1.1C1067.4,318.2,1069.3,316.7,1071.5,316z
	 M1056.8,271.6c4.4,1,4.8,1.8,2.1,4.7c-1.8,2-3.5,3.9-3.9,4.4s-2-0.7-3.7-2.7C1047.4,273.2,1050.1,270,1056.8,271.6L1056.8,271.6z
	 M1032.2,258.4c1.3-0.7,2.2,0.7,1.9,2.9s-1.5,3.3-2.6,2.3c-1.2-1.1-2-2.3-1.9-2.9S1030.8,259.2,1032.2,258.4L1032.2,258.4z
	 M1021.8,326.1c1.9,0.3,3.3,1.5,3.1,2.9c-0.4,3.2-4.3,4.9-5.8,2.7C1017,328.5,1018.4,325.6,1021.8,326.1L1021.8,326.1z M969.9,64.5
	c3.6,0.4,7.1,1.9,7.6,3.3c0.5,1.4-2.7,2.1-6.9,1.5C960.9,68,960.3,63.5,969.9,64.5L969.9,64.5z M939,59.9c1.8,0.2,1.7-0.7-0.2-2.6
	c-1.7-1.7-2.3-2.9-1.5-2.8c1.9-0.1,3.8-0.4,5.6-1c2.7-0.8,3.4-0.3,2.1,1.5c-1.3,1.8-0.8,2.4,1.7,1.7c2.8-0.8,3.3,0.4,2.1,5
	c-1.9,7.2-14.1,8.7-13.1,1.7C936,61.2,937.4,59.7,939,59.9L939,59.9z M934.3,236.8c2.8-0.6,8.8,7.2,8.3,10.9
	c-0.1,1.3-1.2,2.2-2.5,2.1c0,0-0.1,0-0.1,0c-1.2-0.2-2-2.3-1.6-4.7c0.5-3.4,0-3.7-1.9-1.1c-1.4,1.8-3.6,2.3-4.8,1.1
	C928.9,242.5,930.4,237.7,934.3,236.8L934.3,236.8z M883.4,229.1c-0.7,5.4-3.2,6.6-5.6,3c-1.7-2.6,0.3-6.8,3.7-7.6
	C882.9,224,883.8,226.1,883.4,229.1L883.4,229.1z M890.4,228.8c-0.3,2.2-1.5,3.8-2.8,3.6c-1.2-0.2-2.1-1.3-1.9-2.5c0,0,0-0.1,0-0.1
	c0.3-1.5,1.4-2.9,2.8-3.6C889.8,225.4,890.7,226.6,890.4,228.8L890.4,228.8z M921.1,238.9c0.3-1.6,1.3-0.8,2.2,1.8
	c2.2,6.4-5,11.5-13.2,9.4c-11.3-2.9-14.2-11-3.6-10.3c3.4,0.2,6.8,0.7,10.1,1.3C918.7,241.6,920.8,240.6,921.1,238.9L921.1,238.9z
	 M905.8,47.5c1.3,0.2,2.2,0.8,2.1,1.5s-1.2,1.8-2.6,2.5c-1.3,0.7-2.3-0.1-2.1-1.5S904.7,47.3,905.8,47.5L905.8,47.5z M873.3,84.7
	c1.4,0.4,2.4,1.6,2.5,3.1c0.2,1.7,4,1.3,9.3-1c6.5-2.8,11.8-3,20-0.9c6.1,1.6,11,3.9,10.8,5.1c-0.2,1.2-1.4,2.1-2.7,1.9
	c-1.3-0.2-1.9,0.9-1.3,2.3c1.3,3.5-3.2,5.7-6.1,3c-1.7-1.5-1.4-2.7,1-3.9c2.8-1.5,2.8-1.9,0-2.5c-1.8-0.4-6.1-1.5-9.4-2.4l-6.2-1.7
	l4.5,5.4c5.8,7,2.8,9.7-5.4,4.9c-4.6-2.6-7-3-8.3-1.1c-1.1,1.5-0.7,2,0.9,1.1s2.7-0.5,2.5,0.8c-0.2,1.3-3.3,1.9-6.9,1.4
	c-6.4-0.9-6.8-1.7-7.1-13.9c-0.1-0.9,0.6-1.7,1.5-1.8C872.9,84.6,873.1,84.7,873.3,84.7L873.3,84.7z M870.4,125
	c0.3-2.7,1-4.1,1.6-3.1c0.6,0.9,0.4,3.3-0.4,4.9C870.6,128.6,870.1,127.9,870.4,125L870.4,125z M872.5,159.3
	c3.1-0.5,4.5,0.5,4.2,2.9c-0.3,1.9-0.9,3.6-1.5,3.5c-1.6,0.1-3.2,0.5-4.7,1c-2.3,0.7-3.5-0.4-3.2-2.8
	C867.6,161.7,869.8,159.7,872.5,159.3L872.5,159.3z M863.5,91.3c0.4-2.9,1.4-5,2.4-4.9c2.1,0.3,0.5,11-2.3,14.8
	c-1.1,1.6-3,2.1-4.1,1.1c-2.5-2.3-1.9-6.7,0.9-6.3C861.8,96.3,863.1,94.2,863.5,91.3L863.5,91.3z M852.4,88.3c0.3-2.1,2.4-3.4,5-3.1
	c4.9,0.7,5.3,2.6,1.6,7.6C856,96.8,851.6,93.7,852.4,88.3L852.4,88.3z M820.4,306.6c-1.4,0-2.6-1.2-2.6-2.6c0-1.4,1.2-2.6,2.6-2.6
	s2.6,1.2,2.6,2.6c0,0.1,0,0.2,0,0.3c-0.1,1.3-1.2,2.3-2.5,2.3C820.4,306.6,820.4,306.6,820.4,306.6L820.4,306.6z M828.6,134.4
	c0.8-0.7,2.9-0.4,4.3,0.5c1.6,1,1,1.5-1.6,1.3C828.9,135.9,827.7,135.1,828.6,134.4L828.6,134.4z M806,226.2c1.2,2.9,2.1,2.9,4.8,0
	c4.2-4.4,8.4-4.4,5.5,0c-1.7,2.4-1.4,2.4,1.6,0.1c2-1.6,6.4-2.5,10.1-2c6.2,0.8,6.3,1.1,2.4,6.1c-3.3,4.2-6.4,5.1-15.7,4.2
	c-10.5-1-11.5-1.6-10.8-6.6C804.3,224.2,805,223.7,806,226.2L806,226.2z M802.6,67.7c1.7-2.2,2.3-0.8,2.2,4.9
	c-0.1,5.4-1.1,7.9-3.1,7.6C798.4,79.8,798.9,72.7,802.6,67.7L802.6,67.7z M791.2,76.4c0.6,0.1,1.5,1.3,2.1,2.9
	c0.5,1.4-0.1,2.6-1.4,2.4c-1.4-0.3-2.3-1.5-2.1-2.9C790,77.3,790.6,76.3,791.2,76.4L791.2,76.4z M759.7,225.5
	c1.4,3.6-1.6,4.5-14.8,4.7c-14.8,0.2-23.9-4.2-14.3-6.9c2.3-0.6,2.9,0,1.6,1.7c-2.1,2.9,15.4,2.6,22.3-0.4
	C757,223.6,759.1,223.9,759.7,225.5L759.7,225.5z M741.6,48.1c2.5,1.1,3.6,2.9,2.7,4.1c-1,1.4-2.7,0.9-4.4-1.2
	C736.3,46.6,736.7,45.9,741.6,48.1L741.6,48.1z M733.1,88c2.8,0.3,5.7-0.1,6.8-1.1c1-0.9,3.8-1.4,6.1-1s3.8-0.5,3.3-1.9
	s0.9-1.6,3.1-0.6c8.2,3.7,6.3,11-2.3,8.7c-1.5-0.4-3.9,0.7-5.8,2.7c-2.1,2.2-5.1,2.6-8.4,1.2s-5.3-1.1-5.5,0.7
	c-0.2,1.7-1.3,2.1-2.5,1C724.3,94.3,728,87.4,733.1,88L733.1,88z M719.8,224c0.3-2.2,1.5-3.1,2.6-2.1c1.2,1.1,1.8,2.7,1.7,4.3
	c-0.1,1.3-1.2,2.2-2.5,2.1c0,0-0.1,0-0.1,0C720.3,228.1,719.5,226.2,719.8,224L719.8,224z M633.8,222.3c4.6-3.9,6.9-2.9,6.2,2.7
	s-4.6,8.3-7.7,5.5C629.6,228,630.1,225.4,633.8,222.3L633.8,222.3z M617.2,90.7c0.3-2.2,1.6-3.9,2.8-3.7c1.3,0.2,2.1,1.4,1.9,2.6
	c0,0,0,0.1,0,0.1c-0.3,1.6-1.4,2.9-2.8,3.7C617.8,94.1,616.9,92.9,617.2,90.7L617.2,90.7z M500.6,99.6c0.6,0.1,1.5,1.3,2.1,2.9
	c0.5,1.4-0.1,2.6-1.4,2.4c-1.3-0.3-2.3-1.5-2.1-2.9C499.4,100.6,500,99.5,500.6,99.6L500.6,99.6z M459,230.7
	c1.3-0.7,2.3-0.1,2.1,1.4c-0.1,1.4-1.2,2.4-2.6,2.4c-1.3-0.2-2.2-0.8-2.1-1.4S457.6,231.4,459,230.7L459,230.7z M93.5,258.1
	c0.5,0.1,1.4,1.3,2,2.9c0.6,1.5,0,2.6-1.3,2.4c-1.3-0.3-2.2-1.5-2-2.9C92.4,259,93,258,93.5,258.1L93.5,258.1z M58.4,240.2
	c-1.2-0.2-2.4,1-2.6,2.5s0.8,2.2,2.1,1.5c1.4-0.7,2.5-1.8,2.6-2.5S59.7,240.4,58.4,240.2L58.4,240.2z M72.7,250.7
	c-1.8,0.4-0.9,1.7,2,3c3.7,1.7,4.6,1.5,3.1-0.7C76.7,251.3,74.7,250.4,72.7,250.7L72.7,250.7z M803.8,42.9c0.3-2.2-0.6-3.5-1.9-2.9
	c-1.4,0.7-2.5,1.7-2.6,2.3s0.7,1.8,1.9,2.9C802.3,46.1,803.5,45.1,803.8,42.9L803.8,42.9z M808.5,42.3c1.4,0.4,2.8-0.4,3.2-1.8
	c0.4-1.4-0.4-2.8-1.8-3.2c-1.4-0.4-2.8,0.4-3.2,1.8c0,0.1-0.1,0.2-0.1,0.3C806.4,40.7,807.2,42,808.5,42.3
	C808.5,42.3,808.5,42.3,808.5,42.3L808.5,42.3z M812.7,51c1.9-1.4,4.1-1.6,4.9-0.3s0.6-0.4-0.7-3.8c-2.6-7.1-5.9-6.5-6.9,1.3
	C809.5,52.3,810.1,52.9,812.7,51L812.7,51z M861.4,39.1c0.2-1.5-0.7-2.9-1.9-3.1c-1.3-0.2-2.3,0.2-2.4,0.9s0.7,2,1.8,3.1
	C860.1,41,861.3,40.6,861.4,39.1L861.4,39.1z M1036.4,341.9c-1.6,0.4,0.2,1.3,3.8,1.8s5,0.1,2.9-0.8
	C1041,341.9,1038.7,341.5,1036.4,341.9L1036.4,341.9z M1076.9,341.2c-1.9-0.3-3.6,0.7-3.8,2.1s1.1,2.8,3.1,3s3.6-0.7,3.8-2.1
	S1078.8,341.4,1076.9,341.2L1076.9,341.2z M1109.3,139.1c-2.6,5.1-2.6,5.1,1.9,7.2c3.1,1.4,3.8,0.6,3.7-4.4
	C1114.7,134.9,1112.1,133.6,1109.3,139.1L1109.3,139.1z M1088.5,332.3c-2.6-0.4-4.8,0.5-5,1.9c-0.2,1.5,1,2.7,3,3
	c1.9,0.3,3.8-0.5,5-1.9C1092.4,334.1,1091.1,332.7,1088.5,332.3L1088.5,332.3z M1122.3,149.5c5.3,0.7,6.1-0.7,1.8-3.3
	c-1.6-1-3.8-0.8-4.7,0.4C1118.4,147.9,1119.8,149.2,1122.3,149.5L1122.3,149.5z M1135.3,125.5c1-3.8,0.2-6.6-2.7-8.3
	c-3.8-2.3-4.4-1.5-5.6,7.5c-0.8,5.6-1.1,10.6-0.7,11.2C1127.8,138.1,1133.8,131,1135.3,125.5L1135.3,125.5z M1113.3,325.4
	c1-1.4,0.3-2.6-1.6-2.8c-1.9-0.3-3.8,0.5-5,1.9c-1,1.4-0.3,2.6,1.6,2.8C1110.1,327.6,1112,326.9,1113.3,325.4L1113.3,325.4z
	 M1130.2,142.9c-0.2,1.4,1.1,2.6,3,2.9s3.4,0,3.4-0.5s-1.2-1.8-3-2.9S1130.4,141.5,1130.2,142.9L1130.2,142.9z M1097.9,422.1
	c-1.9-0.3-3.7,0.7-3.9,2.1c-0.3,1.3,0.5,2.5,1.7,2.8c0,0,0,0,0.1,0c1.6,0,3-0.8,3.9-2.1C1100.7,423.6,1099.9,422.3,1097.9,422.1
	L1097.9,422.1z M1141.3,136.5c1.9,0.3,3.5,0,3.6-0.5s-1.3-1.8-3.1-2.9s-3.4-0.9-3.6,0.5S1139.3,136.2,1141.3,136.5L1141.3,136.5z
	 M1128.4,304.8c-5.6-3.7-5.6-3.7-3.4,3.5c3.1,10.3,2.2,15.5-1.6,9.7c-3.4-5.2-7-6.4-7.5-2.5c-0.2,1.3,2.2,4.2,5.1,6.3
	c4.6,3.2,5.9,3.2,8.2-0.3c1.5-2.2,4.8-3.8,7.1-3.5c4.3,0.6,4.3,0.5,1-4.4C1134.8,310.1,1131.8,307.2,1128.4,304.8L1128.4,304.8z
	 M1147,131.3c2.3-2-0.2-5-3.5-4.3c-2.2,0.5-2.3,1.2-0.4,3.1C1144.3,131.5,1146.2,132,1147,131.3L1147,131.3z M1116.4,421.4
	c-3.3-1.2-6.8-0.8-8.6,1.1c-2.4,2.6-2,3.3,2.3,3.9C1118.6,427.5,1123.2,423.9,1116.4,421.4L1116.4,421.4z M1158.5,162
	c1.1-0.2,4.3,0.9,7,2.3c3.2,1.8,6.1,1.6,8.4-0.5c3-2.6,3-3.7-0.3-6.8c-4.8-4.6-4.1-11.1,1.6-14.7c4.1-2.6,3.7-3-3.8-4.1
	c-8.7-1.3-14.1,2.1-8.6,5.5c1.9,1.2,3.1,4.8,2.6,8.2c-0.7,5.1-1.7,5.7-6.2,3.8c-6-2.5-6.4-2.3-4.3,3
	C1155.8,160.8,1157.3,162.2,1158.5,162L1158.5,162z M1151.1,319.7c-3.9-3.4-7.2-3-4.8,0.6c0.7,1,2.9,2.1,4.9,2.3
	C1154.2,322.9,1154.2,322.4,1151.1,319.7L1151.1,319.7z M1168.5,221.3c-0.8,0.8-0.9,2.2-0.1,3.1c0.9,1.2,2.2,2,3.6,2.2
	c1.5,0.2,1.5-0.9,0.1-3.1C1170.8,221.6,1169.3,220.7,1168.5,221.3L1168.5,221.3z M1181,238.2c-1.4-0.4-2.8,0.4-3.2,1.8
	c-0.4,1.4,0.4,2.8,1.8,3.2c1.4,0.4,2.8-0.4,3.2-1.8c0-0.1,0.1-0.2,0.1-0.3c0.3-1.3-0.5-2.5-1.8-2.8
	C1181,238.3,1181,238.2,1181,238.2L1181,238.2z M1199.8,258.9c4,2.5,6.9,3,8.6,1.5c1.7-1.5,0.7-3.1-2.9-4.7
	C1197,252.1,1192.7,254.5,1199.8,258.9L1199.8,258.9z M1199,228.7c-0.9,0.8,0.3,1.6,2.7,1.7c2.6,0.2,3.2-0.4,1.6-1.4
	C1201.9,228.1,1199.8,227.9,1199,228.7L1199,228.7z M1210.3,219.8c-0.6-0.8-3.6-1.5-6.4-1.4l-5.3,0.1l5.3,2.5
	C1209.2,223.6,1212.4,222.9,1210.3,219.8L1210.3,219.8z"/>
<text transform="matrix(1 0 0 1 77.2524 215.9698)" class="st1 st2 st3">The Global Standard School</text>
</svg>
